<ttFont>
          <CharString index="0">
            146 833 rmoveto
            26 callsubr
            -108 -89 callsubr
            86 vlineto
            28 5 5 28 vhcurveto
            return
          </CharString>
          <CharString index="1">
            -105 callsubr
            -59 hlineto
            -78 -28 -29 -62 hvcurveto
            return
          </CharString>
          <CharString index="2">
            -23 -8 -6 367 callsubr
            186 349 callgsubr
            return
          </CharString>
          <CharString index="3">
            -113 -366 -103 callsubr
            return
          </CharString>
          <CharString index="4">
            hlineto
            -94 callsubr
            return
          </CharString>
          <CharString index="5">
            -78 -91 callgsubr
            return
          </CharString>
          <CharString index="6">
            rmoveto
            -57 -4 -29 -26 -60 vvcurveto
            -100 callsubr
            151 hlineto
            return
          </CharString>
          <CharString index="7">
            432 callsubr
            36 -25 62 vhcurveto
            38 74 -16 hlineto
            -21 -6 5 21 hvcurveto
            92 -97 callsubr
            return
          </CharString>
          <CharString index="8">
            -97 callgsubr
            114 return
          </CharString>
          <CharString index="9">
            335 callgsubr
            258 276 callgsubr
            return
          </CharString>
          <CharString index="10">
            -96 callgsubr
            18 18 callgsubr
            -267 vlineto
            -23 474 callgsubr
            -219 -88 callgsubr
            131 -68 callgsubr
            35 82 -35 hlineto
            -21 -7 415 callsubr
            return
          </CharString>
          <CharString index="11">
            371 callgsubr
            -24 -74 callsubr
            return
          </CharString>
          <CharString index="12">
            -6 -103 callgsubr
            return
          </CharString>
          <CharString index="13">
            -61 22 callgsubr
            98 hlineto
            77 -65 callsubr
            -21 -7 5 22 hvcurveto
            return
          </CharString>
          <CharString index="14">
            -21 -102 callgsubr
            return
          </CharString>
          <CharString index="15">
            -21 -95 callsubr
            return
          </CharString>
          <CharString index="16">
            114 237 callsubr
          </CharString>
          <CharString index="17">
            -69 -69 vlineto
            -89 callgsubr
            return
          </CharString>
          <CharString index="18">
            -68 -83 68 -55 callgsubr
            83 -68 return
          </CharString>
          <CharString index="19">
            -80 callgsubr
            -29 -71 hvcurveto
            return
          </CharString>
          <CharString index="20">
            hlineto
            -92 callsubr
            return
          </CharString>
          <CharString index="21">
            26 6 -6 -26 hvcurveto
            -162 vlineto
            -26 -7 -6 -25 vhcurveto
            -28 149 -114 -376 -34 callgsubr
            return
          </CharString>
          <CharString index="22">
            -25 callsubr
            -21 -6 5 23 hvcurveto
            110 -60 callgsubr
            return
          </CharString>
          <CharString index="23">
            -297 -61 callsubr
            return
          </CharString>
          <CharString index="24">
            248 callsubr
            77 -98 callsubr
            return
          </CharString>
          <CharString index="25">
            rmoveto
            332 callgsubr
            -42 339 callsubr
            22 hvcurveto
            118 24 callgsubr
            return
          </CharString>
          <CharString index="26">
            -61 28 -53 callgsubr
            -30 hlineto
            -22 261 callgsubr
            return
          </CharString>
          <CharString index="27">
            26 6 -52 callgsubr
            -25 vhcurveto
            -52 return
          </CharString>
          <CharString index="28">
            rmoveto
            -3 callgsubr
            -53 2 callgsubr
            401 vlineto
            21 7 6 22 vhcurveto
            53 -60 callsubr
            -116 115 rmoveto
            178 callsubr
            122 412 callgsubr
          </CharString>
          <CharString index="29">
            -82 callgsubr
            -103 hlineto
            return
          </CharString>
          <CharString index="30">
            32 460 callsubr
            61 hvcurveto
            158 439 callsubr
            -68 vhcurveto
            -42 hlineto
            -69 -31 -73 callgsubr
            -59 69 41 -96 callgsubr
            6 17 callsubr
            -126 210 callgsubr
            -110 return
          </CharString>
          <CharString index="31">
            21 -87 callgsubr
            return
          </CharString>
          <CharString index="32">
            -88 callgsubr
            258 -68 callgsubr
            return
          </CharString>
          <CharString index="33">
            hlineto
            -72 callgsubr
            return
          </CharString>
          <CharString index="34">
            195 -70 callsubr
            return
          </CharString>
          <CharString index="35">
            9 10 5 15 20 vvcurveto
            125 317 callsubr
            return
          </CharString>
          <CharString index="36">
            36 callsubr
            -58 callsubr
            return
          </CharString>
          <CharString index="37">
            rmoveto
            -25 callsubr
            return
          </CharString>
          <CharString index="38">
            -26 -46 callsubr
            return
          </CharString>
          <CharString index="39">
            rmoveto
            -21 -6 -6 -23 vhcurveto
            -20 -24 callsubr
            36 -111 -45 -18 callsubr
            81 hlineto
            76 33 36 63 hvcurveto
            87 vlineto
            62 -31 36 -77 vhcurveto
            -54 2 callgsubr
            72 vlineto
            21 7 6 22 vhcurveto
            20 -60 callsubr
            -37 109 46 358 callsubr
            -76 vhcurveto
            -79 209 callsubr
            -90 vlineto
            -62 30 -36 77 vhcurveto
            54 hlineto
            23 472 callsubr
          </CharString>
          <CharString index="40">
            vlineto
            62 callgsubr
            return
          </CharString>
          <CharString index="41">
            vlineto
            -53 callsubr
            return
          </CharString>
          <CharString index="42">
            -17 callsubr
            -6 -5 -19 vhcurveto
            -30 hlineto
            return
          </CharString>
          <CharString index="43">
            -5 -21 vhcurveto
            -24 -78 59 hlineto
            78 28 486 callgsubr
            -34 29 -68 vhcurveto
            -62 389 callgsubr
            vlineto
            endchar
          </CharString>
          <CharString index="44">
            106 callgsubr
            -38 callsubr
            return
          </CharString>
          <CharString index="45">
            224 callsubr
            119 vlineto
            15 -4 11 return
          </CharString>
          <CharString index="46">
            vlineto
            -63 callgsubr
            return
          </CharString>
          <CharString index="47">
            hlineto
            22 6 -6 -21 hvcurveto
            return
          </CharString>
          <CharString index="48">
            -24 -10 -8 -23 vhcurveto
            -30 hlineto
            -21 -7 5 23 hvcurveto
            155 vlineto
            21 7 5 21 vhcurveto
            28 78 -61 241 callgsubr
            return
          </CharString>
          <CharString index="49">
            162 -56 callsubr
            return
          </CharString>
          <CharString index="50">
            62 hlineto
            20 13 4 8 return
          </CharString>
          <CharString index="51">
            hlineto
            19 -48 callgsubr
            return
          </CharString>
          <CharString index="52">
            52 302 55 -302 rlineto
            40 -218 rmoveto
            116 hlineto
            -133 631 rlineto
            -155 hlineto
            -127 -631 rlineto
            115 hlineto
            22 131 rlineto
            138 hlineto
            endchar
          </CharString>
          <CharString index="53">
            92 vlineto
            71 -33 29 -82 vhcurveto
            -70 -83 43 301 callsubr
            return
          </CharString>
          <CharString index="54">
            23 -98 callgsubr
            return
          </CharString>
          <CharString index="55">
            114 548 return
          </CharString>
          <CharString index="56">
            hlineto
            18 -12 callsubr
          </CharString>
          <CharString index="57">
            15 callsubr
            33 403 rmoveto
            -48 vlineto
            -40 callsubr
            114 474 callsubr
          </CharString>
          <CharString index="58">
            23 -87 callgsubr
            return
          </CharString>
          <CharString index="59">
            hlineto
            -21 225 callgsubr
            return
          </CharString>
          <CharString index="60">
            29 callsubr
            80 hlineto
            83 32 30 return
          </CharString>
          <CharString index="61">
            -8 -8 -26 vhcurveto
            return
          </CharString>
          <CharString index="62">
            -14 callgsubr
            -113 return
          </CharString>
          <CharString index="63">
            -92 callgsubr
            28 78 -61 -95 callgsubr
            return
          </CharString>
          <CharString index="64">
            54 callgsubr
            78 26 34 62 hvcurveto
            67 194 callgsubr
            -398 -114 rmoveto
            114 168 274 callsubr
            -295 -245 100 callgsubr
            return
          </CharString>
          <CharString index="65">
            -66 callsubr
            31 hlineto
            23 return
          </CharString>
          <CharString index="66">
            27 callgsubr
            -21 vhcurveto
            return
          </CharString>
          <CharString index="67">
            -47 callgsubr
            -42 return
          </CharString>
          <CharString index="68">
            -93 callsubr
            103 -77 callsubr
            -196 hlineto
            36 callsubr
            return
          </CharString>
          <CharString index="69">
            -146 -18 callgsubr
            return
          </CharString>
          <CharString index="70">
            195 rmoveto
            -85 callsubr
            90 hlineto
            return
          </CharString>
          <CharString index="71">
            62 hlineto
            20 14 255 callgsubr
            return
          </CharString>
          <CharString index="72">
            50 -29 -26 17 -70 hhcurveto
            -67 -84 28 hlineto
            39 15 -14 -38 21 hvcurveto
            57 -103 101 callgsubr
            return
          </CharString>
          <CharString index="73">
            222 callsubr
            -158 vlineto
            -33 15 -15 81 callgsubr
            -33 vvcurveto
            return
          </CharString>
          <CharString index="74">
            rmoveto
            -516 vlineto
            145 callgsubr
            -53 -24 callsubr
            516 -115 -532 -18 callsubr
            102 callsubr
            532 vlineto
            endchar
          </CharString>
          <CharString index="75">
            -103 callgsubr
            110 20 vlineto
            78 -62 callsubr
            -7 8 vhcurveto
            return
          </CharString>
          <CharString index="76">
            114 -113 -103 vlineto
            -23 -8 -5 -21 vhcurveto
            -27 43 callsubr
          </CharString>
          <CharString index="77">
            -69 callsubr
            -119 -88 callgsubr
            87 vlineto
            22 -87 callgsubr
            68 83 -68 -88 callgsubr
            113 -92 callgsubr
            8 hlineto
            22 80 callsubr
            -33 153 callgsubr
            -32 -73 callgsubr
            -148 vlineto
            -33 15 350 callsubr
            -15 -15 -32 vvcurveto
            return
          </CharString>
          <CharString index="78">
            vlineto
            21 148 callgsubr
            return
          </CharString>
          <CharString index="79">
            10 10 5 15 20 vvcurveto
            125 30 callsubr
            return
          </CharString>
          <CharString index="80">
            -34 callsubr
            -159 vlineto
            return
          </CharString>
          <CharString index="81">
            1 callgsubr
            154 return
          </CharString>
          <CharString index="82">
            -69 callsubr
            -142 hlineto
            return
          </CharString>
          <CharString index="83">
            hlineto
            -24 callgsubr
            return
          </CharString>
          <CharString index="84">
            114 callsubr
            117 -113 -103 120 callsubr
            165 return
          </CharString>
          <CharString index="85">
            -10 callsubr
            -100 return
          </CharString>
          <CharString index="86">
            -16 callgsubr
            184 hlineto
            return
          </CharString>
          <CharString index="87">
            113 -139 rlineto
            116 hlineto
            -114 139 rlineto
            return
          </CharString>
          <CharString index="88">
            -70 12 callsubr
            -36 callsubr
            -91 165 callsubr
            return
          </CharString>
          <CharString index="89">
            vlineto
            -63 32 -36 77 vhcurveto
            return
          </CharString>
          <CharString index="90">
            -12 callgsubr
            117 210 callsubr
            -22 return
          </CharString>
          <CharString index="91">
            rmoveto
            15 callsubr
            33 355 rmoveto
            -40 callsubr
            114 491 -112 vlineto
            return
          </CharString>
          <CharString index="92">
            254 callsubr
            -162 469 callgsubr
            -28 return
          </CharString>
          <CharString index="93">
            vlineto
            -4 callsubr
            return
          </CharString>
          <CharString index="94">
            113 324 callsubr
          </CharString>
          <CharString index="95">
            13 4 8 8 hvcurveto
            -90 -91 callsubr
          </CharString>
          <CharString index="96">
            85 38 28 66 hvcurveto
            191 vlineto
            62 -28 34 -78 vhcurveto
            return
          </CharString>
          <CharString index="97">
            4 -25 callgsubr
            return
          </CharString>
          <CharString index="98">
            -83 206 hlineto
            9 callgsubr
            return
          </CharString>
          <CharString index="99">
            hlineto
            -70 37 -30 78 23 callgsubr
          </CharString>
          <CharString index="100">
            hlineto
            28 callsubr
            return
          </CharString>
          <CharString index="101">
            vlineto
            -70 32 -30 32 callgsubr
            30 70 hvcurveto
            return
          </CharString>
          <CharString index="102">
            64 callgsubr
            -1096 -83 206 hlineto
            -86 callsubr
            339 31 callsubr
            -172 hlineto
            -25 -10 -7 423 callgsubr
            22 hvcurveto
            170 -44 callsubr
            -193 469 callsubr
            65 hlineto
            24 18 6 12 11 hvcurveto
            -24 18 32 -11 47 hhcurveto
            158 callgsubr
          </CharString>
          <CharString index="103">
            22 -98 callgsubr
            return
          </CharString>
          <CharString index="104">
            32 callsubr
            -119 hlineto
            return
          </CharString>
          <CharString index="105">
            106 137 399 callgsubr
            -53 -77 -52 77 399 callgsubr
            return
          </CharString>
          <CharString index="106">
            -292 -308 rlineto
            118 hlineto
            174 186 rlineto
            -123 -91 callsubr
          </CharString>
          <CharString index="107">
            -32 16 53 callsubr
            -16 -15 -32 vvcurveto
            return
          </CharString>
          <CharString index="108">
            267 callsubr
            -91 return
          </CharString>
          <CharString index="109">
            77 32 36 63 hvcurveto
            return
          </CharString>
          <CharString index="110">
            vlineto
            -34 callsubr
            return
          </CharString>
          <CharString index="111">
            30 70 hvcurveto
            return
          </CharString>
          <CharString index="112">
            -83 259 -332 vlineto
            -23 -8 -7 367 callsubr
            161 312 callgsubr
            -184 354 callgsubr
            return
          </CharString>
          <CharString index="113">
            vlineto
            -19 callsubr
            return
          </CharString>
          <CharString index="114">
            373 callgsubr
            -37 113 47 vlineto
            71 -32 29 -83 191 callsubr
            return
          </CharString>
          <CharString index="115">
            77 callgsubr
            -8 -3 -16 hhcurveto
            return
          </CharString>
          <CharString index="116">
            vhcurveto
            -84 -144 -21 callgsubr
            return
          </CharString>
          <CharString index="117">
            rmoveto
            -975 -9 callsubr
            281 84 -259 -75 callgsubr
            457 -358 hlineto
            109 callgsubr
            -41 callgsubr
            -145 vlineto
            -25 51 callsubr
            137 -44 callsubr
            -161 vlineto
            -70 12 callsubr
            61 hlineto
            20 14 4 8 10 hvcurveto
            -42 11 32 -19 54 439 callgsubr
            59 vlineto
            endchar
          </CharString>
          <CharString index="118">
            -250 rmoveto
            38 hlineto
            80 141 rlineto
            60 -118 vlineto
            return
          </CharString>
          <CharString index="119">
            35 -30 67 vhcurveto
            return
          </CharString>
          <CharString index="120">
            rmoveto
            18 4 6 21 vhcurveto
            34 hlineto
            21 4 -6 -18 hvcurveto
            -9 vlineto
            -18 -4 -5 -21 vhcurveto
            -34 hlineto
            -21 -4 5 18 hvcurveto
            78 -79 rmoveto
            58 23 26 49 hvcurveto
            17 vlineto
            49 -23 27 -58 vhcurveto
            -72 hlineto
            -58 -23 -27 -49 hvcurveto
            -17 vlineto
            -49 23 -26 58 vhcurveto
            return
          </CharString>
          <CharString index="121">
            -359 -100 callgsubr
            return
          </CharString>
          <CharString index="122">
            92 callsubr
            22 9 -9 -24 hvcurveto
            -249 237 callgsubr
            return
          </CharString>
          <CharString index="123">
            -21 -7 101 callsubr
            21 -37 24 -43 return
          </CharString>
          <CharString index="124">
            39 callgsubr
            -21 hvcurveto
            return
          </CharString>
          <CharString index="125">
            -83 606 hlineto
            26 7 -52 callgsubr
            -26 vhcurveto
            -51 127 -396 142 callgsubr
            -306 vlineto
            -23 callsubr
            return
          </CharString>
          <CharString index="126">
            46 callsubr
            -91 3 callgsubr
            vlineto
            endchar
          </CharString>
          <CharString index="127">
            -77 -32 138 callgsubr
            32 -36 77 vhcurveto
            98 4 callgsubr
            67 -111 -51 vlineto
            -3 callgsubr
            -36 212 callsubr
            36 -60 callsubr
            -50 return
          </CharString>
          <CharString index="128">
            47 callsubr
            -91 113 return
          </CharString>
          <CharString index="129">
            -105 callsubr
            -264 -81 callgsubr
            64 -9 hlineto
            -99 callsubr
            return
          </CharString>
          <CharString index="130">
            113 24 callsubr
            35 38 callsubr
            -23 hvcurveto
            return
          </CharString>
          <CharString index="131">
            367 -37 callgsubr
            return
          </CharString>
          <CharString index="132" raw="1">
            076a9b7c a5881e0b  
          </CharString>
          <CharString index="133">
            -61 -37 -28 -66 hvcurveto
            return
          </CharString>
          <CharString index="134">
            -4 hlineto
            26 -2 -20 15 -37 hhcurveto
            -108 468 callsubr
            -201 vlineto
            -70 12 callsubr
            108 hlineto
            37 20 15 26 2 hvcurveto
            4 hlineto
            -26 3 19 -15 37 hhcurveto
            106 hlineto
            68 34 4 callsubr
            201 vlineto
            return
          </CharString>
          <CharString index="135">
            21 183 callsubr
            return
          </CharString>
          <CharString index="136">
            32 -30 83 vhcurveto
            return
          </CharString>
          <CharString index="137">
            271 callsubr
            -4 6 vhcurveto
            return
          </CharString>
          <CharString index="138">
            hlineto
            -20 callgsubr
            return
          </CharString>
          <CharString index="139">
            135 callgsubr
            -60 385 callgsubr
            return
          </CharString>
          <CharString index="140">
            -88 callgsubr
            78 -77 callsubr
            -179 92 callgsubr
            return
          </CharString>
          <CharString index="141">
            88 hlineto
            82 33 29 71 hvcurveto
            return
          </CharString>
          <CharString index="142">
            rmoveto
            -23 -6 -5 -21 vhcurveto
            -47 hlineto
            -23 -4 7 21 hvcurveto
            180 467 callgsubr
            47 hlineto
            21 6 -5 -23 hvcurveto
            -210 -180 rmoveto
            -21 -5 -7 -23 vhcurveto
            -47 259 callsubr
            47 hlineto
            23 412 callsubr
            392 179 rmoveto
            83 -676 -83 398 -69 vlineto
            -36 -1 -18 -14 -3 -26 rrcurveto
            27 callsubr
            69 -32 29 -64 2 vhcurveto
            69 vlineto
            endchar
          </CharString>
          <CharString index="143">
            -70 37 44 callgsubr
            return
          </CharString>
          <CharString index="144">
            98 82 callgsubr
            return
          </CharString>
          <CharString index="145">
            hlineto
            22 6 -5 return
          </CharString>
          <CharString index="146">
            -69 callsubr
            -143 -88 callgsubr
            139 32 460 callsubr
            62 hvcurveto
            121 209 callgsubr
            -42 hlineto
            -69 -31 -73 callgsubr
            -59 69 41 -96 callgsubr
            6 17 callsubr
            -90 17 callgsubr
            -198 hlineto
            -88 callsubr
            -220 vlineto
            -61 28 -30 77 335 callgsubr
            190 -14 callsubr
            31 hlineto
            23 5 -6 -21 hvcurveto
            -121 113 121 vlineto
            21 5 6 23 vhcurveto
            56 -150 hlineto
            36 callsubr
            return
          </CharString>
          <CharString index="147">
            rmoveto
            53 -77 461 callgsubr
            -106 137 rlineto
            -117 hlineto
            -106 -137 461 callgsubr
            return
          </CharString>
          <CharString index="148">
            307 callsubr
            113 68 vlineto
            66 return
          </CharString>
          <CharString index="149">
            -98 callsubr
            -189 113 189 320 callgsubr
            return
          </CharString>
          <CharString index="150">
            -75 callsubr
            endchar
          </CharString>
          <CharString index="151">
            -228 -81 callgsubr
            80 -306 hlineto
            321 callgsubr
            -7 5 22 hvcurveto
            return
          </CharString>
          <CharString index="152">
            26 -3 vhcurveto
            285 callsubr
            return
          </CharString>
          <CharString index="153">
            -23 -8 -6 6 callgsubr
            20 14 4 9 8 hvcurveto
            return
          </CharString>
          <CharString index="154">
            -83 64 51 callgsubr
            return
          </CharString>
          <CharString index="155">
            rmoveto
            -121 hlineto
            -86 -137 rlineto
            94 hlineto
            return
          </CharString>
          <CharString index="156">
            1 266 385 rmoveto
            462 callsubr
            132 -29 callsubr
            54 159 callgsubr
            -403 vmoveto
            462 callsubr
            138 -29 callsubr
            54 159 callgsubr
            111 280 rmoveto
            110 callsubr
            -116 hlineto
            384 callgsubr
            -137 vlineto
            -39 12 -27 30 -10 vhcurveto
            -30 -10 -12 -23 -39 vvcurveto
            -148 vlineto
            -63 33 -36 76 vhcurveto
            116 4 callgsubr
            148 vlineto
            39 -11 23 -31 10 vhcurveto
            31 10 11 27 39 vvcurveto
            endchar
          </CharString>
          <CharString index="157">
            vlineto
            -33 16 380 callgsubr
            -2 -16 -15 -33 457 callgsubr
            371 callsubr
            return
          </CharString>
          <CharString index="158">
            -10 -8 -23 53 callgsubr
            return
          </CharString>
          <CharString index="159">
            -92 callgsubr
            53 hlineto
            return
          </CharString>
          <CharString index="160">
            -16 45 callsubr
            return
          </CharString>
          <CharString index="161">
            479 rmoveto
            -193 -290 hlineto
            -14 callgsubr
            -161 vlineto
            158 callsubr
            81 479 vlineto
            -657 -387 0 callgsubr
            803 470 rmoveto
            -1044 97 callgsubr
            -219 hlineto
            434 callsubr
            228 callgsubr
            vlineto
            endchar
          </CharString>
          <CharString index="162">
            rmoveto
            147 108 83 -490 -83 269 -69 -95 144 callgsubr
            -45 7 callgsubr
            -138 vlineto
            36 callsubr
            200 74 -174 435 callgsubr
            133 427 callgsubr
            -13 -68 vlineto
            -56 -28 -23 -54 hvcurveto
            -26 77 20 vlineto
            22 5 5 23 vhcurveto
            47 -63 72 142 hlineto
            54 -27 28 -61 vhcurveto
            -146 319 callgsubr
            14 306 callsubr
          </CharString>
          <CharString index="163">
            170 callgsubr
            85 -63 -73 hlineto
            -63 -32 408 callsubr
            91 -1 rlineto
            33 467 callsubr
            49 -108 92 266 hlineto
            21 15 9 24 34 136 callsubr
          </CharString>
          <CharString index="164">
            -182 hlineto
            1 -83 rlineto
            -353 vlineto
            -44 callgsubr
            153 -56 callsubr
            68 vlineto
            endchar
          </CharString>
          <CharString index="165">
            31 callsubr
            -204 -8 callsubr
          </CharString>
          <CharString index="166">
            -93 callsubr
            151 -44 callsubr
            -175 vlineto
            -60 26 -31 51 -7 vhcurveto
            -108 -161 rlineto
            120 hlineto
            return
          </CharString>
          <CharString index="167">
            -83 64 72 callsubr
            return
          </CharString>
          <CharString index="168">
            -24 51 callsubr
            return
          </CharString>
          <CharString index="169">
            rmoveto
            -270 hlineto
            -21 -7 5 20 hvcurveto
            28 -92 callgsubr
            166 133 479 callsubr
            -62 -87 hlineto
            -78 -28 -27 -57 hvcurveto
            -53 vlineto
            -58 28 -27 78 vhcurveto
            72 39 callgsubr
            -20 hvcurveto
            -49 vlineto
            -21 -7 -4 -21 vhcurveto
            -63 43 -114 -208 114 93 459 callsubr
            27 57 hvcurveto
            67 331 callgsubr
            6 vhcurveto
            93 -81 hlineto
            -248 -237 rlineto
            111 hlineto
            137 137 rlineto
            -83 -91 callsubr
          </CharString>
          <CharString index="170">
            rmoveto
            83 -60 callsubr
            -158 vlineto
            -3 callgsubr
            -83 hlineto
            134 -331 rmoveto
            124 hlineto
            -105 249 rlineto
            51 10 22 34 52 vvcurveto
            187 37 callgsubr
            -232 -631 115 246 38 hlineto
            endchar
          </CharString>
          <CharString index="171">
            -87 callsubr
            96 -66 callsubr
            53 82 -53 -87 callsubr
            93 vlineto
            return
          </CharString>
          <CharString index="172">
            rmoveto
            214 227 rlineto
            122 vlineto
            -332 -349 rlineto
            81 313 157 callgsubr
            114 83 rmoveto
            116 vlineto
            -66 callgsubr
            -103 -98 35 callgsubr
            -91 -6 callsubr
            99 137 83 vlineto
            endchar
          </CharString>
          <CharString index="173">
            rmoveto
            -93 callsubr
            258 -68 callgsubr
            45 153 callsubr
            -258 vlineto
            371 callgsubr
            206 465 342 callsubr
            78 -63 -68 hlineto
            -63 -32 408 callsubr
            91 -1 rlineto
            33 -68 callgsubr
            44 -108 92 261 hlineto
            30 15 13 28 44 224 callgsubr
          </CharString>
          <CharString index="174">
            -78 -28 41 callgsubr
            return
          </CharString>
          <CharString index="175">
            -23 -8 -6 -21 vhcurveto
            -35 hlineto
            183 callgsubr
            return
          </CharString>
          <CharString index="176">
            vhcurveto
            53 -208 hlineto
            -96 callsubr
            return
          </CharString>
          <CharString index="177">
            rmoveto
            454 callsubr
            -92 -87 callsubr
            80 vlineto
            22 440 callsubr
            84 471 callsubr
            99 hlineto
            215 callgsubr
            -508 -83 73 487 callsubr
            -105 7 callgsubr
            -115 502 callgsubr
            64 vhcurveto
            46 hlineto
            441 callsubr
            -91 callsubr
          </CharString>
          <CharString index="178">
            205 callgsubr
            -163 502 callgsubr
            64 vhcurveto
            1 hlineto
            195 callsubr
            return
          </CharString>
          <CharString index="179">
            182 callsubr
            -36 callsubr
            -91 113 return
          </CharString>
          <CharString index="180">
            vlineto
            328 callgsubr
            return
          </CharString>
          <CharString index="181">
            rmoveto
            -23 -7 -5 -22 236 callsubr
            72 hlineto
            -399 -160 rmoveto
            -96 callsubr
            134 52 callsubr
            return
          </CharString>
          <CharString index="182">
            412 callsubr
            -189 113 189 vlineto
            21 5 406 callsubr
            65 hlineto
            endchar
          </CharString>
          <CharString index="183">
            -69 -88 vlineto
            42 callgsubr
            return
          </CharString>
          <CharString index="184">
            -109 hlineto
            23 -57 24 -54 13 -37 23 -41 rlinecurve
            -4 hlineto
            -28 44 -27 36 -50 59 -43 50 rcurveline
            -139 hlineto
            return
          </CharString>
          <CharString index="185">
            -23 -8 -6 -21 vhcurveto
            -33 59 callgsubr
          </CharString>
          <CharString index="186">
            29 -30 77 165 callgsubr
            return
          </CharString>
          <CharString index="187">
            183 callsubr
            -41 69 59 vlineto
            62 return
          </CharString>
          <CharString index="188">
            -92 callgsubr
            63 hlineto
            return
          </CharString>
          <CharString index="189">
            -8 177 337 rmoveto
            -24 callgsubr
            152 -29 callsubr
            49 -60 callsubr
            -179 vlineto
            -109 294 rmoveto
            122 callsubr
            -179 -18 callsubr
            109 -139 hlineto
            -3 callgsubr
            -45 -24 callsubr
            79 -113 -95 -18 callsubr
            109 412 callgsubr
          </CharString>
          <CharString index="190">
            -358 151 callgsubr
            181 112 callsubr
            return
          </CharString>
          <CharString index="191">
            hlineto
            -21 115 callgsubr
            return
          </CharString>
          <CharString index="192">
            -6 263 115 197 callgsubr
            -48 -24 callsubr
            166 76 vlineto
            241 callsubr
            -105 113 rmoveto
            149 -29 callsubr
            44 -60 callsubr
            -81 113 97 37 callgsubr
            -109 166 callgsubr
            114 4 callgsubr
            169 37 callgsubr
            endchar
          </CharString>
          <CharString index="193">
            79 callgsubr
            409 callgsubr
            80 -63 -74 hlineto
            -62 -33 408 callsubr
            91 -1 rlineto
            33 -68 callgsubr
            50 -108 91 273 hlineto
            17 17 8 24 34 vvcurveto
            -31 callsubr
          </CharString>
          <CharString index="194">
            rmoveto
            454 callsubr
            -147 -87 callsubr
            85 -60 callgsubr
            90 hlineto
            215 callgsubr
            -567 -83 155 89 callsubr
            399 callsubr
            -109 -91 callsubr
          </CharString>
          <CharString index="195">
            rmoveto
            -21 225 callgsubr
            161 vlineto
            11 -14 18 -28 26 -43 66 -100 rcurveline
            -2 -4 -5 -1 -7 hhcurveto
            229 453 rmoveto
            -509 -83 327 -208 hlineto
            -89 6 -32 0 vhcurveto
            -60 90 -61 92 265 callgsubr
            -193 469 callsubr
            38 hlineto
            -97 -149 372 callsubr
            102 161 rlineto
            -107 -91 callsubr
          </CharString>
          <CharString index="196">
            31 callsubr
            -187 92 callgsubr
            return
          </CharString>
          <CharString index="197">
            hlineto
            -21 -38 callgsubr
            return
          </CharString>
          <CharString index="198">
            rmoveto
            -23 -8 -7 248 callgsubr
            23 hvcurveto
            334 92 vlineto
            return
          </CharString>
          <CharString index="199">
            150 callgsubr
            30 hlineto
            return
          </CharString>
          <CharString index="200">
            hlineto
            197 callsubr
            return
          </CharString>
          <CharString index="201">
            rmoveto
            212 225 rlineto
            121 vlineto
            -330 -346 rlineto
            81 313 157 callsubr
            249 192 rmoveto
            83 -506 -83 257 -109 -98 vlineto
            -78 -28 -30 -62 hvcurveto
            -108 -6 callsubr
            117 135 83 -135 109 vlineto
            endchar
          </CharString>
          <CharString index="202">
            vlineto
            9 10 5 14 20 vvcurveto
            122 vlineto
            68 -31 32 -84 vhcurveto
            -71 hlineto
            -84 -31 -32 -68 hvcurveto
            -144 vlineto
            -65 29 -32 77 -3 vhcurveto
            -148 -139 rlineto
            133 hlineto
            147 139 rlineto
            return
          </CharString>
          <CharString index="203">
            109 callsubr
            417 396 rmoveto
            -646 -83 257 -69 -82 hlineto
            354 callsubr
            93 -303 vlineto
            -1 callsubr
          </CharString>
          <CharString index="204">
            57 -28 28 -57 vhcurveto
            -90 hlineto
            -28 -5 5 28 hvcurveto
            23 -114 -54 vlineto
            -57 28 -28 57 vhcurveto
            90 249 callgsubr
            -27 return
          </CharString>
          <CharString index="205">
            -25 -46 callsubr
            -44 259 callsubr
            33 82 -233 162 callgsubr
            75 hlineto
            return
          </CharString>
          <CharString index="206">
            -37 vlineto
            145 callgsubr
            -56 2 callgsubr
            37 -102 -38 vlineto
            -63 32 -36 76 vhcurveto
            return
          </CharString>
          <CharString index="207">
            -84 -143 181 callgsubr
            143 rlineto
            return
          </CharString>
          <CharString index="208">
            -103 callgsubr
            178 vlineto
            11 -14 return
          </CharString>
          <CharString index="209">
            122 4 callgsubr
            return
          </CharString>
          <CharString index="210">
            vlineto
            15 -4 11 -7 8 vhcurveto
            return
          </CharString>
          <CharString index="211">
            274 callgsubr
            77 29 486 callgsubr
            -35 29 -67 vhcurveto
            -62 hlineto
            -20 -14 353 callgsubr
            81 vlineto
            endchar
          </CharString>
          <CharString index="212">
            60 callsubr
            24 callsubr
            return
          </CharString>
          <CharString index="213">
            rmoveto
            -97 116 97 hlineto
            -211 -343 -82 callsubr
            393 282 rmoveto
            -650 -83 257 -116 -98 hlineto
            273 callsubr
          </CharString>
          <CharString index="214">
            -114 -376 hlineto
            198 callgsubr
            return
          </CharString>
          <CharString index="215">
            189 callsubr
            endchar
          </CharString>
          <CharString index="216">
            429 callsubr
            103 vlineto
            26 5 5 26 vhcurveto
            61 -134 hlineto
            371 callgsubr
            return
          </CharString>
          <CharString index="217">
            63 238 callgsubr
            return
          </CharString>
          <CharString index="218">
            -100 callgsubr
            371 234 rmoveto
            return
          </CharString>
          <CharString index="219">
            vlineto
            425 callgsubr
            return
          </CharString>
          <CharString index="220">
            rmoveto
            -26 -7 -7 -26 vhcurveto
            -51 97 -164 hlineto
            229 callsubr
            256 vlineto
            26 7 -6 -26 hvcurveto
            return
          </CharString>
          <CharString index="221">
            -61 29 164 callsubr
            return
          </CharString>
          <CharString index="222">
            -23 -8 -6 -21 vhcurveto
            -36 -87 callsubr
            return
          </CharString>
          <CharString index="223">
            -103 callgsubr
            180 -68 callgsubr
            return
          </CharString>
          <CharString index="224">
            rmoveto
            -70 12 callsubr
            67 hlineto
            -97 -132 rlineto
            120 hlineto
            96 134 rlineto
            83 vlineto
            -14 14 -33 78 -29 45 -61 101 rcurveline
            220 callsubr
            114 -21 rmoveto
            466 callsubr
            69 -112 rcurveline
            -97 -87 callsubr
            -175 359 rmoveto
            349 83 -349 hlineto
            endchar
          </CharString>
          <CharString index="225">
            -83 228 hlineto
            84 callgsubr
            145 83 -110 hlineto
            -21 -7 5 21 hvcurveto
            161 100 vlineto
            56 39 37 62 2 hvcurveto
            28 hlineto
            30 9 -15 -27 14 hvcurveto
            28 -50 -146 -163 rlineto
            135 hlineto
            113 126 rlineto
            return
          </CharString>
          <CharString index="226">
            rmoveto
            454 callsubr
            -36 -87 callsubr
            334 92 vlineto
            return
          </CharString>
          <CharString index="227">
            vlineto
            -22 -7 -5 -18 vhcurveto
            -31 -48 callsubr
            return
          </CharString>
          <CharString index="228">
            rmoveto
            -86 137 rlineto
            452 callgsubr
            return
          </CharString>
          <CharString index="229">
            -77 -32 -36 -63 hvcurveto
            return
          </CharString>
          <CharString index="230">
            -84 callsubr
            80 return
          </CharString>
          <CharString index="231">
            rmoveto
            -635 -83 453 -69 -193 -240 hlineto
            -62 callgsubr
            240 -113 -250 vlineto
            -71 32 -29 83 vhcurveto
            80 hlineto
            83 32 29 71 hvcurveto
            168 80 -183 vlineto
            -265 -268 rlineto
            125 hlineto
            140 147 rlineto
            -93 -13 callsubr
          </CharString>
          <CharString index="232">
            hlineto
            -71 callsubr
            return
          </CharString>
          <CharString index="233">
            293 callgsubr
            181 vlineto
            22 -87 callgsubr
            return
          </CharString>
          <CharString index="234">
            111 callsubr
            -618 -83 436 -69 -277 hlineto
            155 callsubr
          </CharString>
          <CharString index="235">
            28 66 hvcurveto
            191 vlineto
            62 -28 34 -78 vhcurveto
            185 -3 rmoveto
            -631 113 453 callgsubr
          </CharString>
          <CharString index="236">
            -182 hlineto
            1 -83 rlineto
            -353 vlineto
            -56 callgsubr
            return
          </CharString>
          <CharString index="237">
            -260 hlineto
            -62 callgsubr
            260 -113 -271 -67 callsubr
            189 return
          </CharString>
          <CharString index="238">
            122 callgsubr
            109 hlineto
            31 21 7 16 15 hvcurveto
            -16 19 24 -7 44 hhcurveto
            return
          </CharString>
          <CharString index="239">
            hlineto
            62 -28 34 -78 vhcurveto
            -97 260 callsubr
            -56 113 43 -92 callgsubr
            27 hlineto
            return
          </CharString>
          <CharString index="240">
            103 callsubr
            91 hlineto
            return
          </CharString>
          <CharString index="241">
            5 6 3 9 11 vvcurveto
            148 279 callgsubr
            return
          </CharString>
          <CharString index="242">
            403 callsubr
            251 hmoveto
            83 -521 105 callsubr
            109 82 -97 391 callsubr
            vlineto
            endchar
          </CharString>
          <CharString index="243">
            vvcurveto
            223 callsubr
          </CharString>
          <CharString index="244">
            491 callsubr
            -30 29 -77 2 vhcurveto
            69 vlineto
            endchar
          </CharString>
          <CharString index="245">
            -35 -88 callgsubr
            return
          </CharString>
          <CharString index="246">
            hlineto
            -80 callgsubr
            -30 -70 hvcurveto
            -236 vlineto
            -61 28 -30 77 335 callgsubr
            205 276 callgsubr
            -153 113 153 320 callgsubr
            23 vhcurveto
            return
          </CharString>
          <CharString index="247">
            rmoveto
            125 hlineto
            192 202 rlineto
            119 vlineto
            -442 -38 rmoveto
            -71 32 -29 83 vhcurveto
            80 hlineto
            83 32 29 71 hvcurveto
            168 132 82 -245 -240 vlineto
            -62 callgsubr
            240 -113 vlineto
            -63 69 rmoveto
            505 83 -505 hlineto
            endchar
          </CharString>
          <CharString index="248">
            rmoveto
            113 137 rlineto
            -106 hlineto
            -86 -137 rlineto
            52 137 rmoveto
            -106 hlineto
            -86 -137 rlineto
            79 hlineto
            return
          </CharString>
          <CharString index="249">
            vhcurveto
            53 295 callsubr
            -21 vhcurveto
            -24 hlineto
            return
          </CharString>
          <CharString index="250">
            29 callsubr
            77 hlineto
            return
          </CharString>
          <CharString index="251">
            -70 12 callsubr
            -36 callsubr
            -61 22 callgsubr
            91 84 -56 49 callgsubr
            258 467 callsubr
            30 hlineto
            23 75 callsubr
          </CharString>
          <CharString index="252">
            -24 hlineto
            -21 -7 5 return
          </CharString>
          <CharString index="253">
            93 callgsubr
            259 -14 callsubr
            81 -397 336 callsubr
          </CharString>
          <CharString index="254">
            -56 callsubr
            68 vlineto
            endchar
          </CharString>
          <CharString index="255">
            65 83 -639 -83 461 -69 -89 vlineto
            213 callsubr
            -102 hlineto
            -68 -34 -29 -71 hvcurveto
            248 callsubr
            78 vhcurveto
            74 84 -39 361 callgsubr
            return
          </CharString>
          <CharString index="256">
            12 callgsubr
            219 return
          </CharString>
          <CharString index="257">
            hlineto
            -21 -6 6 20 hvcurveto
            30 vlineto
            20 501 callgsubr
            return
          </CharString>
          <CharString index="258">
            rmoveto
            371 callgsubr
            -34 159 callsubr
            return
          </CharString>
          <CharString index="259">
            160 callgsubr
            -52 return
          </CharString>
          <CharString index="260">
            39 callgsubr
            -23 hvcurveto
            return
          </CharString>
          <CharString index="261">
            54 callgsubr
            78 26 34 62 hvcurveto
            67 194 callgsubr
            -512 -359 100 callgsubr
            return
          </CharString>
          <CharString index="262">
            -78 -28 -29 -62 hvcurveto
            -210 83 callgsubr
          </CharString>
          <CharString index="263">
            61 callsubr
            163 -44 callsubr
            -187 469 callsubr
            65 hlineto
            24 15 5 11 10 hvcurveto
            -27 16 33 -12 52 hhcurveto
            78 hlineto
            82 428 callsubr
            return
          </CharString>
          <CharString index="264">
            rmoveto
            371 callgsubr
            -42 159 callsubr
            80 24 callgsubr
            return
          </CharString>
          <CharString index="265">
            -20 -13 353 callgsubr
            return
          </CharString>
          <CharString index="266">
            hlineto
            26 callgsubr
            return
          </CharString>
          <CharString index="267">
            -83 202 208 callsubr
            -94 vlineto
            -23 474 callgsubr
            -67 -83 67 38 callsubr
            -23 hvcurveto
            -177 398 callgsubr
            -34 hlineto
            -18 -7 5 22 hvcurveto
            108 -113 -122 vlineto
            -61 22 callgsubr
            101 82 callgsubr
            return
          </CharString>
          <CharString index="268">
            -288 444 callgsubr
            114 return
          </CharString>
          <CharString index="269">
            2 callsubr
            229 callgsubr
            endchar
          </CharString>
          <CharString index="270">
            -69 vlineto
            -77 -2 -31 -29 -69 473 callsubr
            return
          </CharString>
          <CharString index="271">
            -30 77 227 callsubr
            return
          </CharString>
          <CharString index="272">
            113 548 return
          </CharString>
          <CharString index="273">
            503 callsubr
            -29 26 -56 5 vhcurveto
            70 vlineto
            endchar
          </CharString>
          <CharString index="274">
            88 rmoveto
            15 callsubr
            return
          </CharString>
          <CharString index="275">
            -23 -7 -5 -22 208 callgsubr
            return
          </CharString>
          <CharString index="276">
            -30 268 callgsubr
            return
          </CharString>
          <CharString index="277">
            -106 callgsubr
            279 -66 vlineto
            return
          </CharString>
          <CharString index="278">
            hlineto
            79 37 4 callsubr
            294 vlineto
            4 0 3 4 vvcurveto
            175 17 callsubr
            -51 vlineto
            -21 -7 -5 -21 vhcurveto
            -100 -124 223 callgsubr
          </CharString>
          <CharString index="279">
            241 callgsubr
            -25 vlineto
            -61 22 callgsubr
            return
          </CharString>
          <CharString index="280">
            -24 -48 callsubr
            return
          </CharString>
          <CharString index="281">
            vlineto
            -88 callsubr
            -227 vlineto
            -61 28 -30 77 335 callgsubr
            196 251 callsubr
            -6 -22 hvcurveto
            return
          </CharString>
          <CharString index="282">
            -36 -63 hvcurveto
            -293 vlineto
            return
          </CharString>
          <CharString index="283">
            -47 -25 -20 -44 hvcurveto
            -18 -4 vlineto
            26 -1 -19 18 -43 hhcurveto
            -293 hlineto
            26 callsubr
            -68 114 46 vlineto
            28 5 5 28 vhcurveto
            219 403 callgsubr
            83 -68 return
          </CharString>
          <CharString index="284">
            rmoveto
            20 5 6 22 vhcurveto
            21 hlineto
            21 6 -6 -20 hvcurveto
            -136 vlineto
            -20 -6 -6 -21 vhcurveto
            -21 hlineto
            -22 -5 6 20 hvcurveto
            return
          </CharString>
          <CharString index="285">
            122 callsubr
            -433 -18 callsubr
            return
          </CharString>
          <CharString index="286">
            281 callsubr
            291 callsubr
            return
          </CharString>
          <CharString index="287">
            -197 54 631 rmoveto
            -631 115 631 vlineto
            return
          </CharString>
          <CharString index="288">
            238 callsubr
            12 callsubr
            return
          </CharString>
          <CharString index="289">
            440 callgsubr
            12 callsubr
            return
          </CharString>
          <CharString index="290">
            6 -5 -21 hvcurveto
            return
          </CharString>
          <CharString index="291">
            -47 -25 -20 -44 hvcurveto
            -18 -4 vlineto
            26 -1 -19 18 -43 hhcurveto
            -117 464 callgsubr
            6 5 28 vhcurveto
            43 403 callgsubr
            83 -68 return
          </CharString>
          <CharString index="292">
            -83 68 -210 hlineto
            0 callsubr
            -134 vlineto
            409 callgsubr
            133 hlineto
            82 20 callgsubr
            134 vlineto
            32 -15 15 -26 3 vhcurveto
            3 vlineto
            26 3 15 16 32 vvcurveto
            return
          </CharString>
          <CharString index="293">
            hlineto
            20 14 255 callgsubr
            -91 374 callsubr
          </CharString>
          <CharString index="294">
            -92 callsubr
            75 vlineto
            23 346 callgsubr
            99 -76 callgsubr
            return
          </CharString>
          <CharString index="295">
            -83 64 -200 hlineto
            328 callgsubr
            -152 vlineto
            370 callsubr
            return
          </CharString>
          <CharString index="296">
            rmoveto
            -412 vlineto
            -133 412 rlineto
            -111 -631 106 418 hlineto
            135 -418 rlineto
            108 631 hlineto
            return
          </CharString>
          <CharString index="297">
            -83 63 -370 hlineto
            62 callgsubr
            370 return
          </CharString>
          <CharString index="298">
            vhcurveto
            -71 150 callsubr
            return
          </CharString>
          <CharString index="299">
            vlineto
            -22 -6 -5 -21 vhcurveto
            -24 -78 59 82 callgsubr
            return
          </CharString>
          <CharString index="300">
            151 69 83 -449 455 callsubr
            return
          </CharString>
          <CharString index="301">
            vvcurveto
            228 callsubr
            return
          </CharString>
          <CharString index="302">
            431 callgsubr
            122 hlineto
            return
          </CharString>
          <CharString index="303">
            vlineto
            21 458 callsubr
            return
          </CharString>
          <CharString index="304">
            -20 -13 -3 -8 -8 hvcurveto
            return
          </CharString>
          <CharString index="305">
            36 5 -6 -27 hvcurveto
            return
          </CharString>
          <CharString index="306">
            -83 646 -116 -487 280 callsubr
            -163 12 callgsubr
            171 80 -8 vlineto
            -163 179 callsubr
            171 return
          </CharString>
          <CharString index="307">
            415 callsubr
            151 hlineto
            -96 -647 rmoveto
            -19 -7 5 21 hvcurveto
            41 vlineto
            25 5 6 22 1 vhcurveto
            99 -71 hlineto
            -22 -8 -6 -19 vhcurveto
            278 647 rmoveto
            83 return
          </CharString>
          <CharString index="308">
            368 callgsubr
            21 6 5 21 vhcurveto
            29 246 callsubr
            34 -29 68 414 callgsubr
            68 vlineto
            endchar
          </CharString>
          <CharString index="309">
            hhcurveto
            215 callsubr
          </CharString>
          <CharString index="310">
            -115 hlineto
            113 -139 rlineto
            116 hlineto
            endchar
          </CharString>
          <CharString index="311">
            286 callgsubr
            106 -51 callsubr
          </CharString>
          <CharString index="312">
            rmoveto
            193 callsubr
            35 callgsubr
            return
          </CharString>
          <CharString index="313">
            365 callgsubr
            163 hlineto
            18 13 4 return
          </CharString>
          <CharString index="314">
            -96 callgsubr
            24 78 return
          </CharString>
          <CharString index="315">
            hlineto
            198 callsubr
            return
          </CharString>
          <CharString index="316">
            hlineto
            122 callsubr
            return
          </CharString>
          <CharString index="317">
            -113 -103 vlineto
            return
          </CharString>
          <CharString index="318">
            -54 -19 -30 -36 -30 6 -36 1 -5 hvcurveto
            -3 hlineto
            -4 23 -9 34 -9 31 -11 39 rcurveline
            -110 hlineto
            40 -62 31 -52 22 -31 35 -44 rlinecurve
            -4 hlineto
            -37 44 -32 34 -60 61 -52 50 rcurveline
            -139 hlineto
            return
          </CharString>
          <CharString index="319">
            hlineto
            150 callgsubr
            return
          </CharString>
          <CharString index="320">
            -33 -33 callgsubr
            -15 15 -33 hhcurveto
            return
          </CharString>
          <CharString index="321">
            -24 -9 -9 -22 vhcurveto
            return
          </CharString>
          <CharString index="322">
            -58 callsubr
            69 vlineto
            endchar
          </CharString>
          <CharString index="323">
            -70 32 478 callsubr
            -139 114 321 -114 -81 vlineto
            454 callsubr
            -32 hlineto
            183 callgsubr
            171 vlineto
            22 -87 callgsubr
            endchar
          </CharString>
          <CharString index="324">
            -54 vlineto
            -23 -6 -6 -24 vhcurveto
            -110 hlineto
            -23 -7 6 23 hvcurveto
            54 -97 return
          </CharString>
          <CharString index="325">
            -83 155 31 callsubr
            return
          </CharString>
          <CharString index="326">
            15 6 8 12 vhcurveto
            23 34 -43 50 hhcurveto
            return
          </CharString>
          <CharString index="327">
            74 247 callsubr
            return
          </CharString>
          <CharString index="328">
            282 callsubr
            -15 return
          </CharString>
          <CharString index="329">
            -5 -6 -2 -9 -11 vvcurveto
            return
          </CharString>
          <CharString index="330">
            -69 callgsubr
            endchar
          </CharString>
          <CharString index="331">
            26 34 62 hvcurveto
            return
          </CharString>
          <CharString index="332">
            hlineto
            272 callgsubr
            77 260 callgsubr
            219 return
          </CharString>
          <CharString index="333">
            vlineto
            409 callgsubr
            88 hlineto
            82 20 callgsubr
            return
          </CharString>
          <CharString index="334">
            vhcurveto
            37 callsubr
            return
          </CharString>
          <CharString index="335">
            460 callgsubr
            12 callsubr
            return
          </CharString>
          <CharString index="336">
            197 callsubr
            110 return
          </CharString>
          <CharString index="337">
            -15 -32 457 callgsubr
            -62 return
          </CharString>
          <CharString index="338">
            -15 -26 -3 hvcurveto
            return
          </CharString>
          <CharString index="339">
            66 -37 28 -61 vhcurveto
            -317 hlineto
            -62 -36 -28 -66 hvcurveto
            -68 113 46 vlineto
            28 5 5 29 vhcurveto
            219 403 callgsubr
            return
          </CharString>
          <CharString index="340">
            -83 228 hlineto
            84 callgsubr
            204 78 -169 hlineto
            -21 -7 5 22 hvcurveto
            170 return
          </CharString>
          <CharString index="341">
            hlineto
            243 callsubr
          </CharString>
          <CharString index="342">
            85 -280 -85 161 vlineto
            -172 -321 rlineto
            -85 295 85 return
          </CharString>
          <CharString index="343">
            vhcurveto
            -42 259 callgsubr
            return
          </CharString>
          <CharString index="344">
            548 68 vlineto
            endchar
          </CharString>
          <CharString index="345">
            -210 vlineto
            -70 return
          </CharString>
          <CharString index="346">
            537 795 195 213 callgsubr
            39 20 vlineto
            78 26 34 61 hvcurveto
            66 397 callsubr
            -200 63 384 hlineto
            return
          </CharString>
          <CharString index="347">
            484 callsubr
            463 465 callsubr
            -631 240 vlineto
            162 callsubr
          </CharString>
          <CharString index="348">
            22 7 -6 -21 hvcurveto
            return
          </CharString>
          <CharString index="349">
            195 64 callgsubr
            return
          </CharString>
          <CharString index="350">
            -19 callsubr
            68 vlineto
            endchar
          </CharString>
          <CharString index="351">
            -69 -33 -28 -63 hvcurveto
            -67 344 callsubr
            -33 vvcurveto
            -65 vlineto
            -62 33 -29 69 vhcurveto
            255 83 -229 -87 callsubr
            return
          </CharString>
          <CharString index="352">
            190 rmoveto
            68 callsubr
            return
          </CharString>
          <CharString index="353">
            78 -61 -95 callgsubr
            -179 vlineto
            -71 return
          </CharString>
          <CharString index="354">
            78 -119 -95 callgsubr
            return
          </CharString>
          <CharString index="355">
            -288 vlineto
            -61 28 -30 return
          </CharString>
          <CharString index="356">
            -28 -34 -62 hvcurveto
            -82 return
          </CharString>
          <CharString index="357">
            -71 vlineto
            -61 22 callgsubr
            101 hlineto
            78 28 30 61 hvcurveto
            223 callsubr
          </CharString>
          <CharString index="358">
            -42 callsubr
            5 return
          </CharString>
          <CharString index="359">
            -5 -21 208 callgsubr
            return
          </CharString>
          <CharString index="360">
            61 callsubr
            155 -92 callgsubr
            return
          </CharString>
          <CharString index="361">
            26 6 -6 -26 hvcurveto
            return
          </CharString>
          <CharString index="362">
            195 rmoveto
            -69 callsubr
            -141 hlineto
            -21 -8 -32 callsubr
            91 hlineto
            return
          </CharString>
          <CharString index="363">
            195 rmoveto
            -26 -8 -8 -26 vhcurveto
            -142 hlineto
            -21 -7 -32 callsubr
            91 hlineto
            return
          </CharString>
          <CharString index="364">
            -24 279 700 rmoveto
            -283 -803 rlineto
            101 hlineto
            283 803 rlineto
            endchar
          </CharString>
          <CharString index="365">
            22 -117 -180 372 callsubr
            119 188 rlineto
            return
          </CharString>
          <CharString index="366">
            417 callsubr
            23 6 5 21 vhcurveto
            return
          </CharString>
          <CharString index="367">
            hlineto
            -78 -28 -34 -62 hvcurveto
            return
          </CharString>
          <CharString index="368">
            vlineto
            -23 -8 -5 -21 vhcurveto
            return
          </CharString>
          <CharString index="369">
            260 callgsubr
            173 82 -173 vlineto
            -70 37 -30 78 vhcurveto
            158 callgsubr
          </CharString>
          <CharString index="370">
            196 634 -196 hlineto
            236 -185 rmoveto
            196 185 -196 hlineto
            return
          </CharString>
          <CharString index="371">
            -88 110 -543 115 543 111 return
          </CharString>
          <CharString index="372">
            350 callgsubr
            22 9 -9 return
          </CharString>
          <CharString index="373">
            27 8 1 36 vhcurveto
            16 82 return
          </CharString>
          <CharString index="374">
            13 255 callgsubr
            return
          </CharString>
          <CharString index="375">
            vlineto
            71 -34 29 return
          </CharString>
          <CharString index="376">
            444 callsubr
            -294 404 callgsubr
            669 return
          </CharString>
          <CharString index="377">
            -548 -91 callsubr
          </CharString>
          <CharString index="378">
            vlineto
            12 -3 8 return
          </CharString>
          <CharString index="379">
            -26 177 167 callsubr
            return
          </CharString>
          <CharString index="380">
            -63 callsubr
            97 -349 -91 callsubr
          </CharString>
          <CharString index="381">
            vlineto
            198 callsubr
            -55 17 callgsubr
            return
          </CharString>
          <CharString index="382">
            35 callgsubr
            -59 222 callgsubr
            return
          </CharString>
          <CharString index="383">
            390 callsubr
            82 33 30 70 hvcurveto
            return
          </CharString>
          <CharString index="384">
            -193 vlineto
            -58 26 -29 55 -4 vhcurveto
            return
          </CharString>
          <CharString index="385">
            -69 279 callsubr
            return
          </CharString>
          <CharString index="386">
            -277 -95 callgsubr
            return
          </CharString>
          <CharString index="387">
            hlineto
            106 callgsubr
            return
          </CharString>
          <CharString index="388">
            vlineto
            352 callsubr
            return
          </CharString>
          <CharString index="389">
            285 callsubr
            -16 return
          </CharString>
          <CharString index="390">
            -17 354 330 callsubr
            73 83 -453 455 callsubr
            35 callgsubr
            -210 vlineto
            -46 14 -29 34 -14 vhcurveto
            return
          </CharString>
          <CharString index="391">
            rmoveto
            88 -67 88 -113 -88 -49 -88 49 -304 -18 callsubr
            70 91 -37 2 callgsubr
            285 vlineto
            endchar
          </CharString>
          <CharString index="392">
            -3 vlineto
            -26 -3 return
          </CharString>
          <CharString index="393">
            56 18 callgsubr
            -90 398 callgsubr
            -33 hlineto
            -19 225 callgsubr
            57 -114 -71 vlineto
            370 callsubr
            return
          </CharString>
          <CharString index="394">
            247 189 68 callgsubr
            return
          </CharString>
          <CharString index="395">
            hlineto
            -80 callsubr
            127 return
          </CharString>
          <CharString index="396">
            36 5 347 callsubr
            return
          </CharString>
          <CharString index="397">
            164 rlineto
            -110 113 return
          </CharString>
          <CharString index="398">
            87 260 callgsubr
            return
          </CharString>
          <CharString index="399">
            -8 vlineto
            -146 472 callgsubr
            34 callsubr
            154 97 -349 -91 callsubr
          </CharString>
          <CharString index="400">
            36 5 -25 callgsubr
            return
          </CharString>
          <CharString index="401">
            -5 vhcurveto
            -103 -159 rlineto
            return
          </CharString>
          <CharString index="402">
            458 callgsubr
            -7 -5 return
          </CharString>
          <CharString index="403">
            78 rmoveto
            -21 -7 5 22 hvcurveto
            84 426 callgsubr
            19 153 callsubr
            -111 vlineto
            540 553 rmoveto
            return
          </CharString>
          <CharString index="404">
            -166 133 callgsubr
            return
          </CharString>
          <CharString index="405">
            hlineto
            26 14 8 16 7 hvcurveto
            -16 19 29 -8 39 hhcurveto
            162 hlineto
            return
          </CharString>
          <CharString index="406">
            70 413 callgsubr
            return
          </CharString>
          <CharString index="407">
            vlineto
            328 callsubr
            114 337 -37 callgsubr
            62 -9 hlineto
            return
          </CharString>
          <CharString index="408">
            39 callgsubr
            -22 hvcurveto
            -71 vlineto
            371 callgsubr
            -63 -75 callsubr
            return
          </CharString>
          <CharString index="409">
            -32 rmoveto
            468 callgsubr
            323 hlineto
            48 21 24 42 vhcurveto
            42 98 -18 hlineto
            -48 -30 -29 -36 -10 hvcurveto
            endchar
          </CharString>
          <CharString index="410">
            rmoveto
            35 hlineto
            86 205 rlineto
            72 -121 vlineto
            -168 -277 rmoveto
            35 hlineto
            87 336 callgsubr
          </CharString>
          <CharString index="411">
            543 -115 -631 283 88 vlineto
            endchar
          </CharString>
          <CharString index="412">
            -353 vlineto
            -69 callsubr
            return
          </CharString>
          <CharString index="413">
            vlineto
            19 501 callgsubr
            endchar
          </CharString>
          <CharString index="414">
            -5 -28 hvcurveto
            -46 return
          </CharString>
          <CharString index="415">
            -83 276 -69 -102 hlineto
            94 callgsubr
            -62 73 callsubr
            return
          </CharString>
          <CharString index="416">
            -32 323 callgsubr
          </CharString>
          <CharString index="417">
            vlineto
            329 callgsubr
            return
          </CharString>
          <CharString index="418">
            hlineto
            24 15 430 callsubr
            19 28 490 callgsubr
            return
          </CharString>
          <CharString index="419">
            377 callsubr
            -7 5 23 hvcurveto
            return
          </CharString>
          <CharString index="420">
            rmoveto
            -22 -6 101 callsubr
            20 -37 25 -43 return
          </CharString>
          <CharString index="421">
            496 callgsubr
            -85 return
          </CharString>
          <CharString index="422">
            vhcurveto
            -47 417 callsubr
            return
          </CharString>
          <CharString index="423">
            347 callgsubr
            -297 vlineto
            return
          </CharString>
          <CharString index="424">
            vlineto
            281 callgsubr
            return
          </CharString>
          <CharString index="425">
            hlineto
            368 callsubr
            return
          </CharString>
          <CharString index="426">
            -181 rlineto
            -11 -3 return
          </CharString>
          <CharString index="427">
            -157 -75 callgsubr
            return
          </CharString>
          <CharString index="428">
            -5 -6 -3 -10 -13 vvcurveto
            -57 vlineto
            -62 32 -28 62 vhcurveto
            84 hlineto
            19 12 4 8 8 hvcurveto
            -84 91 249 vlineto
            return
          </CharString>
          <CharString index="429">
            -75 callgsubr
            252 return
          </CharString>
          <CharString index="430">
            hlineto
            327 callsubr
          </CharString>
          <CharString index="431">
            548 69 vlineto
            endchar
          </CharString>
          <CharString index="432">
            190 rmoveto
            109 callgsubr
            return
          </CharString>
          <CharString index="433">
            -32 78 vhcurveto
            86 hlineto
            19 12 3 8 8 hvcurveto
            -83 113 448 -113 -65 vlineto
            -20 -46 callgsubr
            return
          </CharString>
          <CharString index="434">
            62 callgsubr
            370 84 270 callsubr
          </CharString>
          <CharString index="435">
            -70 34 -30 68 vhcurveto
            152 callgsubr
            return
          </CharString>
          <CharString index="436">
            417 callgsubr
            -69 callsubr
            return
          </CharString>
          <CharString index="437">
            397 rmoveto
            151 return
          </CharString>
          <CharString index="438">
            401 rmoveto
            147 return
          </CharString>
          <CharString index="439">
            370 rmoveto
            22 7 5 21 69 callsubr
            return
          </CharString>
          <CharString index="440">
            hlineto
            36 callsubr
            163 hlineto
            18 13 4 8 8 hvcurveto
            -81 -91 callsubr
          </CharString>
          <CharString index="441">
            vlineto
            -70 35 -30 67 314 callsubr
            -91 callsubr
          </CharString>
          <CharString index="442">
            hlineto
            -56 -31 -15 -32 -12 hvcurveto
            -98 116 return
          </CharString>
          <CharString index="443">
            113 398 callsubr
          </CharString>
          <CharString index="444">
            hlineto
            78 28 29 62 hvcurveto
            return
          </CharString>
          <CharString index="445">
            -36 77 vhcurveto
            113 hlineto
            return
          </CharString>
          <CharString index="446">
            hlineto
            -21 -8 5 return
          </CharString>
          <CharString index="447">
            hlineto
            199 callgsubr
            -193 vlineto
            -69 callsubr
            -31 -87 callsubr
            359 return
          </CharString>
          <CharString index="448">
            416 callgsubr
            181 427 callsubr
            return
          </CharString>
          <CharString index="449">
            rmoveto
            83 -461 -83 176 163 callsubr
            409 callgsubr
            return
          </CharString>
          <CharString index="450">
            265 callsubr
            -24 hvcurveto
            return
          </CharString>
          <CharString index="451">
            vlineto
            -32 16 53 callsubr
            -16 -15 return
          </CharString>
          <CharString index="452">
            rmoveto
            371 callgsubr
            -25 -88 callgsubr
            return
          </CharString>
          <CharString index="453">
            hlineto
            -26 -5 5 26 hvcurveto
            24 vlineto
            26 5 5 26 vhcurveto
            return
          </CharString>
          <CharString index="454">
            -6 -27 hvcurveto
            -107 27 callgsubr
            return
          </CharString>
          <CharString index="455">
            370 rmoveto
            -4 callsubr
            return
          </CharString>
          <CharString index="456">
            hhcurveto
            -31 395 callsubr
            return
          </CharString>
          <CharString index="457">
            380 callgsubr
            -3 return
          </CharString>
          <CharString index="458">
            80 hlineto
            82 20 callgsubr
            return
          </CharString>
          <CharString index="459">
            -70 33 -30 83 vhcurveto
            return
          </CharString>
          <CharString index="460">
            -76 callsubr
            28 246 callsubr
            35 -29 67 vhcurveto
            return
          </CharString>
          <CharString index="461">
            204 callgsubr
            -131 vlineto
            -71 146 callgsubr
            89 hlineto
            82 33 30 71 hvcurveto
            295 return
          </CharString>
          <CharString index="462">
            vlineto
            21 6 5 19 vhcurveto
            30 17 callsubr
            -157 vlineto
            -26 -7 -7 -26 vhcurveto
            -51 return
          </CharString>
          <CharString index="463">
            -124 hlineto
            -126 -314 125 -317 rlineto
            124 hlineto
            -129 317 rlineto
            endchar
          </CharString>
          <CharString index="464">
            181 83 rmoveto
            return
          </CharString>
          <CharString index="465">
            vlineto
            63 -32 36 return
          </CharString>
          <CharString index="466">
            hlineto
            183 callgsubr
            94 467 callsubr
            44 153 callsubr
            -37 return
          </CharString>
          <CharString index="467">
            hlineto
            20 13 4 9 8 hvcurveto
            -91 442 callgsubr
            return
          </CharString>
          <CharString index="468">
            rmoveto
            -118 hlineto
            -107 -236 106 -255 rlineto
            119 hlineto
            -110 255 rlineto
            endchar
          </CharString>
          <CharString index="469">
            101 265 callgsubr
            return
          </CharString>
          <CharString index="470">
            4 callsubr
            171 424 callsubr
            return
          </CharString>
          <CharString index="471">
            63 -87 38 -50 34 -39 33 -28 rlinecurve
            111 hlineto
            return
          </CharString>
          <CharString index="472" raw="1">
            1ef7f01d 0b  
          </CharString>
          <CharString index="473">
            -82 72 318 callsubr
            return
          </CharString>
          <CharString index="474">
            -21 vhcurveto
            138 callsubr
            return
          </CharString>
          <CharString index="475">
            -8 -8 -5 -13 -18 vvcurveto
            return
          </CharString>
          <CharString index="476">
            hlineto
            -68 492 callsubr
            return
          </CharString>
          <CharString index="477">
            -61 433 callgsubr
            return
          </CharString>
          <CharString index="478">
            -70 457 callsubr
            return
          </CharString>
          <CharString index="479">
            rlineto
            121 hlineto
            return
          </CharString>
          <CharString index="480">
            78 hlineto
            82 428 callsubr
            76 -397 374 callsubr
          </CharString>
          <CharString index="481">
            113 237 callsubr
          </CharString>
          <CharString index="482">
            751 rmoveto
            21 458 callsubr
            50 78 -86 hlineto
            199 callgsubr
            -133 return
          </CharString>
          <CharString index="483">
            hlineto
            -36 66 rlineto
            51 -29 -20 17 -69 hhcurveto
            -58 71 hlineto
            281 callgsubr
            return
          </CharString>
          <CharString index="484">
            408 callgsubr
            -21 return
          </CharString>
          <CharString index="485">
            -223 hlineto
            -89 6 -32 174 callgsubr
            return
          </CharString>
          <CharString index="486">
            rmoveto
            303 79 -303 hlineto
            endchar
          </CharString>
          <CharString index="487">
            428 callgsubr
            -61 return
          </CharString>
          <CharString index="488">
            296 rmoveto
            -182 -213 return
          </CharString>
          <CharString index="489">
            80 260 callgsubr
            return
          </CharString>
          <CharString index="490">
            -98 callgsubr
            66 return
          </CharString>
          <CharString index="491">
            -82 -33 -30 -70 hvcurveto
            return
          </CharString>
          <CharString index="492">
            -92 callsubr
            71 vlineto
            43 -9 50 0 vhcurveto
            0 17 -40 30 -39 vhcurveto
            return
          </CharString>
          <CharString index="493">
            252 callgsubr
            -359 rmoveto
            371 callgsubr
            return
          </CharString>
          <CharString index="494">
            83 -186 -87 callsubr
            94 -66 callsubr
            44 hlineto
            return
          </CharString>
          <CharString index="495">
            -160 212 631 rmoveto
            -193 -88 78 -543 115 hlineto
            endchar
          </CharString>
          <CharString index="496">
            -278 -95 callgsubr
            return
          </CharString>
          <CharString index="497">
            295 callgsubr
            80 hlineto
            return
          </CharString>
          <CharString index="498">
            214 callgsubr
            81 return
          </CharString>
          <CharString index="499">
            -92 callsubr
            359 92 return
          </CharString>
          <CharString index="500">
            vlineto
            -21 474 callgsubr
            return
          </CharString>
          <CharString index="501">
            vlineto
            23 8 6 21 vhcurveto
            return
          </CharString>
          <CharString index="502">
            hlineto
            -71 431 callsubr
            return
          </CharString>
          <CharString index="503">
            -182 hlineto
            1 -83 rlineto
            return
          </CharString>
          <CharString index="504">
            vlineto
            62 -26 34 -78 vhcurveto
            return
          </CharString>
          <CharString index="505">
            548 68 hlineto
            endchar
          </CharString>
          <CharString index="506">
            103 163 rlineto
            return
          </CharString>
          <CharString index="507">
            459 245 callsubr
            return
          </CharString>
          <CharString index="508">
            503 -2 callgsubr
            return
          </CharString>
          <CharString index="509">
            vlineto
            -70 12 callsubr
            152 callgsubr
            114 return
          </CharString>
          <CharString index="510">
            -6 callgsubr
            359 92 vlineto
            return
          </CharString>
          <CharString index="511">
            vlineto
            36 callsubr
            205 74 -179 -87 callsubr
            return
          </CharString>
          <CharString index="512">
            85 callgsubr
            hlineto
            endchar
          </CharString>
          <CharString index="513">
            7 23 vhcurveto
            56 -397 165 callsubr
            return
          </CharString>
          <CharString index="514">
            -83 68 182 callsubr
            return
          </CharString>
          <CharString index="515">
            -26 -65 hvcurveto
            -46 vlineto
            return
          </CharString>
          <CharString index="516">
            -87 hlineto
            213 callsubr
            return
          </CharString>
          <CharString index="517">
            hvcurveto
            -14 17 24 -7 32 220 callgsubr
            return
          </CharString>
          <CharString index="518">
            4 callsubr
            219 76 -397 -13 callsubr
          </CharString>
          <CharString index="519">
            5 -7 -21 hvcurveto
            return
          </CharString>
          <CharString index="520">
            258 callsubr
            52 return
          </CharString>
          <CharString index="521">
            26 2 15 16 33 vvcurveto
            116 vlineto
            11 -3 9 -4 6 vhcurveto
            return
          </CharString>
          <CharString index="522">
            -103 callgsubr
            135 vlineto
            30 8 3 41 -2 vhcurveto
            -5 1 rlineto
            return
          </CharString>
          <CharString index="523">
            hlineto
            -21 -7 5 22 hvcurveto
            87 -68 callgsubr
            endchar
          </CharString>
          <CharString index="524">
            -87 callsubr
            180 vlineto
            return
          </CharString>
          <CharString index="525">
            -87 callsubr
            113 vlineto
            return
          </CharString>
          <CharString index="526">
            122 135 -122 hlineto
            return
          </CharString>
          <CharString index="527">
            rmoveto
            -303 -79 303 hlineto
            return
          </CharString>
          <CharString index="528">
            -96 -87 callsubr
            return
          </CharString>
          <CharString index="529">
            320 callgsubr
            23 vhcurveto
            58 return
          </CharString>
          <CharString index="530">
            669 -113 -669 vlineto
            return
          </CharString>
          <CharString index="531">
            98 471 callgsubr
            return
          </CharString>
          <CharString index="532">
            26 -3 vhcurveto
            -4 vlineto
            -26 return
          </CharString>
          <CharString index="533">
            -26 -6 -7 -26 vhcurveto
            -51 return
          </CharString>
          <CharString index="534">
            vlineto
            456 callgsubr
            return
          </CharString>
          <CharString index="535">
            20 callgsubr
            219 return
          </CharString>
          <CharString index="536">
            rmoveto
            26 callgsubr
            return
          </CharString>
          <CharString index="537">
            7 15 7 hvcurveto
            -15 return
          </CharString>
          <CharString index="538">
            -31 -36 -63 hvcurveto
            return
          </CharString>
          <CharString index="539">
            -110 vlineto
            -66 return
          </CharString>
          <CharString index="540">
            -83 68 -548 return
          </CharString>
          <CharString index="541">
            62 callgsubr
            219 return
          </CharString>
          <CharString index="542">
            463 callsubr
            131 return
          </CharString>
          <CharString index="543">
            -74 callsubr
            258 426 callgsubr
            return
          </CharString>
          <CharString index="544">
            254 callsubr
            -131 485 callsubr
            return
          </CharString>
          <CharString index="545">
            vlineto
            -64 29 -30 55 294 callsubr
            122 hlineto
            return
          </CharString>
          <CharString index="546">
            vlineto
            62 -33 29 return
          </CharString>
          <CharString index="547">
            -98 callgsubr
            53 83 -53 -87 callsubr
            return
          </CharString>
          <CharString index="548">
            475 callsubr
            -109 return
          </CharString>
          <CharString index="549">
            -250 rmoveto
            38 hlineto
            81 141 rlineto
            60 -119 vlineto
            return
          </CharString>
          <CharString index="550">
            -21 -6 5 19 hvcurveto
            23 vlineto
            20 383 callsubr
            return
          </CharString>
          <CharString index="551">
            28 -10 -24 14 -35 349 callsubr
            return
          </CharString>
          <CharString index="552">
            164 rlineto
            -110 374 callsubr
          </CharString>
          <CharString index="553">
            -228 -95 callgsubr
            return
          </CharString>
          <CharString index="554">
            hhcurveto
            -102 369 callsubr
            return
          </CharString>
          <CharString index="555">
            hlineto
            20 13 4 8 8 hvcurveto
            -60 return
          </CharString>
          <CharString index="556" raw="1">
            fb4f0646 0a0b  
          </CharString>
          <CharString index="557">
            -179 vlineto
            -61 22 callgsubr
            return
          </CharString>
          <CharString index="558">
            -83 86 208 callsubr
            return
          </CharString>
          <CharString index="559">
            470 callgsubr
            -23 vhcurveto
            return
          </CharString>
          <CharString index="560">
            rmoveto
            -105 94 105 vlineto
            endchar
          </CharString>
          <CharString index="561">
            -23 -8 -7 -21 vhcurveto
            return
          </CharString>
          <CharString index="562">
            -83 267 -69 -93 return
          </CharString>
          <CharString index="563">
            548 rmoveto
            83 return
          </CharString>
          <CharString index="564">
            37 -30 79 vhcurveto
            return
          </CharString>
          <CharString index="565">
            6 5 22 vhcurveto
            return
          </CharString>
          <CharString index="566">
            98 hlineto
            78 28 return
          </CharString>
          <CharString index="567">
            vlineto
            78 28 34 return
          </CharString>
          <CharString index="568">
            rmoveto
            477 callgsubr
            return
          </CharString>
          <CharString index="569">
            145 callgsubr
            -54 -24 callsubr
            return
          </CharString>
          <CharString index="570">
            -71 32 -29 83 vhcurveto
            77 370 callgsubr
            return
          </CharString>
          <CharString index="571">
            vlineto
            -89 6 -32 135 callgsubr
            return
          </CharString>
          <CharString index="572">
            90 -60 callsubr
            -233 111 rmoveto
            return
          </CharString>
          <CharString index="573">
            434 callgsubr
            24 -43 return
          </CharString>
          <CharString index="574">
            vlineto
            23 458 callsubr
            return
          </CharString>
          <CharString index="575">
            hlineto
            -67 -35 -29 -71 hvcurveto
            return
          </CharString>
          <CharString index="576">
            vlineto
            352 callgsubr
            return
          </CharString>
          <CharString index="577">
            -173 vlineto
            -70 37 -30 return
          </CharString>
          <CharString index="578">
            vlineto
            30 8 2 41 vhcurveto
            return
          </CharString>
          <CharString index="579">
            6 -6 -21 hvcurveto
            endchar
          </CharString>
          <CharString index="580">
            vvcurveto
            -279 vlineto
            return
          </CharString>
          <CharString index="581">
            491 vlineto
            endchar
          </CharString>
          <CharString index="582">
            -102 282 callgsubr
            399 callsubr
            return
          </CharString>
          <CharString index="583">
            vlineto
            289 callsubr
            return
          </CharString>
          <CharString index="584">
            479 rmoveto
            389 callsubr
            return
          </CharString>
          <CharString index="585">
            -30 406 callgsubr
            return
          </CharString>
          <CharString index="586">
            104 454 callgsubr
            -660 -83 261 return
          </CharString>
          <CharString index="587">
            -83 276 -69 -102 144 callgsubr
            return
          </CharString>
          <CharString index="588">
            -31 -68 hvcurveto
            -64 vlineto
            -21 5 -14 9 -10 vhcurveto
            return
          </CharString>
          <CharString index="589">
            -87 callsubr
            359 vlineto
            endchar
          </CharString>
          <CharString index="590">
            vhcurveto
            88 hlineto
            215 callgsubr
            return
          </CharString>
          <CharString index="591">
            rmoveto
            -3 callgsubr
            -90 return
          </CharString>
          <CharString index="592">
            vlineto
            426 callsubr
            return
          </CharString>
          <CharString index="593">
            17 callgsubr
            -100 return
          </CharString>
          <CharString index="594">
            hlineto
            337 callgsubr
            return
          </CharString>
          <CharString index="595">
            77 32 37 62 hvcurveto
            return
          </CharString>
          <CharString index="596">
            rmoveto
            -73 66 73 vlineto
            return
          </CharString>
          <CharString index="597">
            vlineto
            63 -31 36 return
          </CharString>
          <CharString index="598">
            279 vlineto
            69 return
          </CharString>
          <CharString index="599">
            -34 -29 -71 hvcurveto
            return
          </CharString>
          <CharString index="600">
            vhcurveto
            114 hlineto
            return
          </CharString>
          <CharString index="601">
            163 113 callgsubr
            return
          </CharString>
          <CharString index="602">
            25 50 hvcurveto
            47 -76 -38 vlineto
            -20 -6 -5 return
          </CharString>
          <CharString index="603">
            -6 -27 hvcurveto
            -78 -41 callsubr
            return
          </CharString>
          <CharString index="604">
            4 callsubr
            189 79 -189 vlineto
            -70 return
          </CharString>
          <CharString index="605">
            -114 -88 hlineto
            -74 -29 -27 -55 -3 hvcurveto
            return
          </CharString>
          <CharString index="606">
            -349 374 callsubr
          </CharString>
          <CharString index="607">
            vhcurveto
            117 hlineto
            return
          </CharString>
          <CharString index="608" raw="1">
            079f9191 0b  
          </CharString>
          <CharString index="609">
            hvcurveto
            -186 vlineto
            return
          </CharString>
          <CharString index="610">
            288 vlineto
            59 return
          </CharString>
          <CharString index="611">
            243 rmoveto
            -83 return
          </CharString>
        <CharString name=".notdef">
          90 0 vmoveto
          502 701 -502 hlineto
          51 -49 rmoveto
          400 -603 -400 hlineto
          200 253 rmoveto
          105 -209 rlineto
          60 hlineto
          -135 254 135 261 rlineto
          -60 hlineto
          -100 -206 rlineto
          -4 hlineto
          -105 206 rlineto
          -60 hlineto
          134 -255 -134 -260 rlineto
          60 hlineto
          100 209 rlineto
          endchar
        </CharString>
        <CharString name="A">
          11 160 218 rmoveto
          -55 callsubr
        </CharString>
        <CharString name="AE">
          214 204 225 rmoveto
          106 293 rlineto
          -293 vlineto
          111 -137 rmoveto
          191 155 89 -155 175 185 88 -359 vlineto
          -239 -631 rlineto
          114 hlineto
          50 139 rlineto
          138 -139 304 88 hlineto
          endchar
        </CharString>
        <CharString name="Aacute">
          11 374 800 48 callsubr
          -101 -445 rmoveto
          -55 callsubr
        </CharString>
        <CharString name="Abreve">
          11 263 663 rmoveto
          76 32 36 63 hvcurveto
          38 -102 99 callsubr
          -1 -445 rmoveto
          -55 callsubr
        </CharString>
        <CharString name="Acircumflex">
          11 212 740 40 callsubr
          -445 vmoveto
          -55 callsubr
        </CharString>
        <CharString name="Adieresis">
          11 372 767 91 callgsubr
          -8 -444 rmoveto
          -55 callsubr
        </CharString>
        <CharString name="Agrave">
          11 253 663 121 callsubr
          1 -445 rmoveto
          -55 callsubr
        </CharString>
        <CharString name="Amacron">
          11 364 741 420 callsubr
          -204 -444 rmoveto
          -55 callsubr
        </CharString>
        <CharString name="Aogonek">
          11 160 218 rmoveto
          52 302 55 -302 rlineto
          90 -384 133 callgsubr
          106 -3 hlineto
          -130 619 rlineto
          -155 hlineto
          -127 -631 rlineto
          115 hlineto
          22 131 rlineto
          138 hlineto
          24 -131 rlineto
          39 -21 -7 hlineto
          405 callsubr
        </CharString>
        <CharString name="Aring">
          11 171 750 13 callsubr
          -17 -444 rmoveto
          -55 callsubr
        </CharString>
        <CharString name="Atilde">
          11 144 683 rmoveto
          219 callsubr
          8 callgsubr
          vlineto
          16 -445 rmoveto
          -55 callsubr
        </CharString>
        <CharString name="B">
          20 48 631 rmoveto
          -631 240 vlineto
          2 callsubr
          148 vlineto
          39 -12 23 -30 10 vhcurveto
          30 10 12 28 39 vvcurveto
          136 37 callgsubr
          -5 -520 197 callgsubr
          -91 193 91 hlineto
          22 7 -5 -22 hvcurveto
          138 vmoveto
          145 callgsubr
          -91 186 91 159 callgsubr
          endchar
        </CharString>
        <CharString name="C">
          -9 378 422 -13 callgsubr
        </CharString>
        <CharString name="CR">
          -420 endchar
        </CharString>
        <CharString name="Cacute">
          -9 369 800 48 callsubr
          122 -241 -13 callgsubr
        </CharString>
        <CharString name="Ccaron">
          -9 268 663 rmoveto
          -2 callsubr
          106 -137 rlineto
          227 -241 -13 callgsubr
        </CharString>
        <CharString name="Ccedilla">
          -9 158 263 callgsubr
          220 471 -13 callgsubr
        </CharString>
        <CharString name="D">
          26 286 111 240 callsubr
        </CharString>
        <CharString name="Dcaron">
          26 278 663 rmoveto
          -2 callsubr
          106 -137 rlineto
          125 -552 240 callsubr
        </CharString>
        <CharString name="Dcroat">
          30 286 392 callgsubr
          -90 189 69 83 -69 183 90 -60 callsubr
          -233 115 rmoveto
          -271 -52 -83 52 -277 240 vlineto
          162 callsubr
        </CharString>
        <CharString name="E">
          -46 164 88 rmoveto
          191 70 callgsubr
          vlineto
          endchar
        </CharString>
        <CharString name="Eacute">
          -46 356 800 48 callsubr
          -79 -384 rmoveto
          70 callgsubr
          -192 hlineto
          endchar
        </CharString>
        <CharString name="Ecaron">
          -46 258 663 rmoveto
          -2 callsubr
          106 -137 rlineto
          23 -384 rmoveto
          70 callgsubr
          -192 hlineto
          endchar
        </CharString>
        <CharString name="Ecircumflex">
          -46 200 740 40 callsubr
          16 -384 rmoveto
          70 callgsubr
          -192 hlineto
          endchar
        </CharString>
        <CharString name="Edieresis">
          -24 154 767 rmoveto
          -116 -105 116 hlineto
          10 -383 rmoveto
          70 callgsubr
          -192 hlineto
          78 679 rmoveto
          -105 116 105 vlineto
          endchar
        </CharString>
        <CharString name="Edotaccent">
          -46 267 768 420 callgsubr
          -103 -575 rmoveto
          191 70 callgsubr
          vlineto
          endchar
        </CharString>
        <CharString name="Egrave">
          -46 246 663 121 callsubr
          12 -575 rmoveto
          191 70 callgsubr
          vlineto
          endchar
        </CharString>
        <CharString name="Emacron">
          -46 348 751 420 callsubr
          -184 -584 rmoveto
          191 70 callgsubr
          vlineto
          endchar
        </CharString>
        <CharString name="Eogonek">
          -46 291 297 callsubr
          106 -1 76 -192 191 155 89 -155 175 184 88 -300 -631 232 -21 -7 hlineto
          405 callsubr
        </CharString>
        <CharString name="Eth">
          25 286 111 484 callsubr
          193 69 83 -69 187 465 callsubr
          -271 -52 -83 52 -277 240 vlineto
          162 callsubr
        </CharString>
        <CharString name="Euro">
          13 400 422 rmoveto
          110 37 callgsubr
          -117 hlineto
          -76 -32 -36 -63 hvcurveto
          -119 -45 -74 45 -46 -45 -76 45 -119 vlineto
          -62 32 -37 76 500 callsubr
          488 callsubr
          108 -116 -96 vlineto
          -3 callgsubr
          -46 hlineto
          -23 29 callgsubr
          107 79 76 -79 46 79 74 -79 107 vlineto
          21 6 6 23 vhcurveto
          46 -60 callsubr
          -98 vlineto
          endchar
        </CharString>
        <CharString name="F">
          -57 354 543 rmoveto
          88 -306 -631 116 267 155 84 -155 192 vlineto
          endchar
        </CharString>
        <CharString name="G">
          -4 378 437 36 callgsubr
        </CharString>
        <CharString name="Gbreve">
          -4 262 663 rmoveto
          76 32 36 63 hvcurveto
          38 -102 99 callsubr
          218 -226 36 callgsubr
        </CharString>
        <CharString name="H">
          36 293 631 rmoveto
          -274 -130 274 -115 -631 115 269 130 -269 115 631 vlineto
          endchar
        </CharString>
        <CharString name="I">
          180 callsubr
          endchar
        </CharString>
        <CharString name="Iacute">
          180 callsubr
          -104 32 164 callgsubr
          endchar
        </CharString>
        <CharString name="Icircumflex">
          180 callsubr
          -222 32 251 callgsubr
        </CharString>
        <CharString name="Idieresis">
          -197 -49 662 218 callgsubr
          -101 -136 rmoveto
          -631 115 631 vlineto
          endchar
        </CharString>
        <CharString name="Idotaccent">
          180 callsubr
          -119 41 rmoveto
          122 105 -122 hlineto
          endchar
        </CharString>
        <CharString name="Igrave">
          180 callsubr
          -97 169 357 callgsubr
        </CharString>
        <CharString name="Imacron">
          180 callsubr
          -209 41 379 callsubr
        </CharString>
        <CharString name="Iogonek">
          -197 103 297 callsubr
          725 -115 -631 38 -21 -7 hlineto
          405 callsubr
        </CharString>
        <CharString name="J">
          -50 13 221 rmoveto
          -122 -18 callsubr
          94 4 callgsubr
          532 -116 -516 vlineto
          -3 callgsubr
          -24 2 callgsubr
          106 vlineto
          endchar
        </CharString>
        <CharString name="K">
          6 48 hmoveto
          115 631 -115 hlineto
          370 hmoveto
          356 callsubr
        </CharString>
        <CharString name="L">
          -86 163 88 rmoveto
          304 callsubr
        </CharString>
        <CharString name="Lacute">
          -86 267 800 48 callsubr
          9 -575 rmoveto
          304 callsubr
        </CharString>
        <CharString name="Lcaron">
          -86 269 803 rmoveto
          -112 hlineto
          -53 -77 -52 77 399 callgsubr
          106 -137 rlineto
          117 hlineto
          -578 vmoveto
          304 callsubr
        </CharString>
        <CharString name="Lslash">
          -74 167 88 rmoveto
          214 vlineto
          104 49 rlineto
          84 vlineto
          -104 -49 rlineto
          245 -115 -300 vlineto
          -79 -37 rlineto
          -84 vlineto
          79 37 rlineto
          -247 283 88 vlineto
          endchar
        </CharString>
        <CharString name="M">
          141 327 137 rmoveto
          84 306 rlineto
          -443 101 631 -126 vlineto
          -106 -375 -106 375 rlineto
          -126 -631 102 442 hlineto
          84 -305 rlineto
          endchar
        </CharString>
        <CharString name="N">
          26 292 631 108 callsubr
        </CharString>
        <CharString name="NULL">
          -420 endchar
        </CharString>
        <CharString name="Nacute">
          26 173 663 164 callgsubr
          33 -169 108 callsubr
        </CharString>
        <CharString name="Ncaron">
          26 165 662 rmoveto
          117 hlineto
          -2 callsubr
          233 -168 108 callsubr
        </CharString>
        <CharString name="Ntilde">
          26 292 631 189 callsubr
          -111 32 rmoveto
          8 callgsubr
          20 vlineto
          219 callsubr
          endchar
        </CharString>
        <CharString name="O">
          9 269 115 -79 callsubr
        </CharString>
        <CharString name="OE">
          195 282 111 197 callgsubr
          -53 -24 callsubr
          409 -29 callsubr
          53 159 callgsubr
          112 -436 rmoveto
          198 155 83 -155 182 184 84 -272 -20 vlineto
          13 -15 -21 7 -28 hhcurveto
          -76 166 callgsubr
          77 hlineto
          28 20 7 12 15 hvcurveto
          -19 280 84 vlineto
          endchar
        </CharString>
        <CharString name="Oacute">
          9 371 800 48 callsubr
          11 -548 -79 callsubr
        </CharString>
        <CharString name="Ocircumflex">
          9 212 740 40 callsubr
          109 -548 -79 callsubr
        </CharString>
        <CharString name="Odieresis">
          2 374 767 91 callgsubr
          99 -547 -79 callsubr
        </CharString>
        <CharString name="Ograve">
          9 254 663 121 callsubr
          109 -548 -79 callsubr
        </CharString>
        <CharString name="Ohungarumlaut">
          2 324 662 141 callsubr
          85 -547 -79 callsubr
        </CharString>
        <CharString name="Omacron">
          9 365 741 420 callsubr
          -96 -547 -79 callsubr
        </CharString>
        <CharString name="Oslash">
          14 277 109 rmoveto
          -21 -6 -6 -23 vhcurveto
          -62 hlineto
          -21 -7 5 18 -1 hvcurveto
          120 278 rlineto
          -120 139 rmoveto
          21 7 6 22 vhcurveto
          62 hlineto
          23 6 -6 -21 hvcurveto
          -1 vlineto
          -120 -279 rlineto
          236 409 rmoveto
          -60 hlineto
          -11 -25 rlineto
          3 -12 -15 2 -17 hhcurveto
          -122 209 callsubr
          -433 vlineto
          -28 6 -22 14 -17 vhcurveto
          -23 -52 rlineto
          59 hlineto
          11 25 rlineto
          -3 12 14 -2 16 hhcurveto
          102 callsubr
          433 vlineto
          26 -6 22 -12 16 vhcurveto
          endchar
        </CharString>
        <CharString name="Otilde">
          9 150 683 rmoveto
          219 callsubr
          8 callgsubr
          vlineto
          119 -548 -79 callsubr
        </CharString>
        <CharString name="P">
          -5 274 347 rmoveto
          -3 callgsubr
          -83 223 83 -60 callsubr
          -226 115 rmoveto
          -631 115 232 117 vlineto
          488 callsubr
          201 37 callgsubr
          endchar
        </CharString>
        <CharString name="Q">
          9 159 516 rmoveto
          21 7 6 22 vhcurveto
          53 -60 callsubr
          -401 vlineto
          -3 callgsubr
          -53 2 callgsubr
          252 -199 rmoveto
          -77 94 rlineto
          35 15 15 31 43 vvcurveto
          229 callgsubr
          -122 166 callgsubr
          65 hlineto
          67 -84 rlineto
          endchar
        </CharString>
        <CharString name="R">
          10 163 543 63 callsubr
        </CharString>
        <CharString name="Racute">
          10 367 799 48 callsubr
          -91 -119 63 callsubr
        </CharString>
        <CharString name="Rcaron">
          10 271 662 rmoveto
          -2 callsubr
          106 -137 rlineto
          9 -119 63 callsubr
        </CharString>
        <CharString name="S">
          -21 248 115 -70 callgsubr
        </CharString>
        <CharString name="Sacute">
          -21 156 663 164 callgsubr
          6 -685 -70 callgsubr
        </CharString>
        <CharString name="Scaron">
          -21 141 663 rmoveto
          117 hlineto
          -2 callsubr
          213 -685 -70 callgsubr
        </CharString>
        <CharString name="T">
          -74 341 631 rmoveto
          -336 264 callsubr
          hlineto
          endchar
        </CharString>
        <CharString name="Tcaron">
          -74 230 663 rmoveto
          -2 callsubr
          106 -137 rlineto
          228 -32 rmoveto
          -336 264 callsubr
          hlineto
          endchar
        </CharString>
        <CharString name="Thorn">
          8 272 233 rmoveto
          -3 callgsubr
          -78 218 78 -60 callsubr
          -106 113 rmoveto
          121 -115 -631 115 121 112 vlineto
          77 32 36 62 hvcurveto
          192 37 callgsubr
          endchar
        </CharString>
        <CharString name="U">
          14 272 631 -33 callsubr
        </CharString>
        <CharString name="Uacute">
          14 373 800 48 callsubr
          12 -32 -33 callsubr
        </CharString>
        <CharString name="Ucircumflex">
          14 216 740 40 callsubr
          108 -32 -33 callsubr
        </CharString>
        <CharString name="Udieresis">
          14 376 767 91 callgsubr
          100 -31 -33 callsubr
        </CharString>
        <CharString name="Ugrave">
          14 263 663 121 callsubr
          103 -32 -33 callsubr
        </CharString>
        <CharString name="Uhungarumlaut">
          4 321 663 141 callsubr
          91 -548 197 callgsubr
          -53 -24 callsubr
          516 -115 -532 -18 callsubr
          102 callsubr
          532 -115 vlineto
          endchar
        </CharString>
        <CharString name="Umacron">
          14 369 741 420 callsubr
          -97 -31 -33 callsubr
        </CharString>
        <CharString name="Uogonek">
          14 272 631 rmoveto
          -516 vlineto
          145 callgsubr
          -53 -24 callsubr
          516 -115 -532 -18 callsubr
          31 -21 -7 hlineto
          85 callgsubr
          -84 hlineto
          443 callsubr
          94 14 4 callgsubr
          532 vlineto
          endchar
        </CharString>
        <CharString name="Uring">
          14 174 750 13 callsubr
          92 -31 -33 callsubr
        </CharString>
        <CharString name="V">
          -7 289 631 rmoveto
          -83 -510 -81 510 rlineto
          -119 hlineto
          125 -631 rlineto
          151 hlineto
          125 631 rlineto
          endchar
        </CharString>
        <CharString name="W">
          255 551 631 rmoveto
          -71 -512 -82 512 rlineto
          -121 hlineto
          -83 -512 -65 512 rlineto
          -119 hlineto
          111 -631 rlineto
          146 hlineto
          70 445 71 -445 rlineto
          146 hlineto
          111 631 rlineto
          endchar
        </CharString>
        <CharString name="X">
          -4 269 322 rmoveto
          128 309 rlineto
          -124 hlineto
          -67 -208 -67 208 rlineto
          -129 hlineto
          132 -309 -139 -322 rlineto
          123 hlineto
          80 221 79 -221 rlineto
          128 hlineto
          endchar
        </CharString>
        <CharString name="Y">
          -13 404 631 186 callgsubr
        </CharString>
        <CharString name="Yacute">
          -13 362 800 48 callsubr
          155 -32 186 callgsubr
        </CharString>
        <CharString name="Ydieresis">
          -21 361 775 91 callgsubr
          247 -39 186 callgsubr
        </CharString>
        <CharString name="Z">
          -63 345 631 323 callgsubr
        </CharString>
        <CharString name="Zacute">
          -63 344 800 48 callsubr
          114 309 callsubr
        </CharString>
        <CharString name="Zcaron">
          -63 245 663 rmoveto
          -2 callsubr
          106 -137 rlineto
          -105 -120 rmoveto
          175 callgsubr
          88 -322 vlineto
          endchar
        </CharString>
        <CharString name="Zdotaccent">
          -63 249 768 420 callgsubr
          96 309 callsubr
        </CharString>
        <CharString name="a">
          -26 177 88 rmoveto
          -50 callsubr
        </CharString>
        <CharString name="aacute">
          -26 362 660 48 callsubr
          -72 -435 -16 callsubr
          endchar
        </CharString>
        <CharString name="abreve">
          -26 177 88 -16 callsubr
          22 169 rmoveto
          99 callsubr
          102 hlineto
          76 32 36 63 hvcurveto
          38 vlineto
          endchar
        </CharString>
        <CharString name="acircumflex">
          -26 199 600 40 callsubr
          30 -435 -16 callsubr
          endchar
        </CharString>
        <CharString name="acute">
          24 117 523 164 callgsubr
          endchar
        </CharString>
        <CharString name="adieresis">
          -26 156 646 rmoveto
          -116 -105 116 hlineto
          21 -453 -16 callsubr
          4 155 rmoveto
          -105 116 105 vlineto
          endchar
        </CharString>
        <CharString name="ae">
          189 182 424 callgsubr
          55 vlineto
          89 36 rlineto
          -88 vlineto
          -22 -1 -9 -8 -21 hhcurveto
          215 317 rmoveto
          22 6 -6 -21 hvcurveto
          -90 -101 90 vlineto
          21 7 6 22 vhcurveto
          176 -194 rmoveto
          10 7 171 37 callgsubr
          -73 hlineto
          377 callgsubr
          -81 113 65 350 callgsubr
          21 9 -8 -22 1 hvcurveto
          -86 vlineto
          -202 -83 rlineto
          -105 216 callgsubr
          vlineto
          endchar
        </CharString>
        <CharString name="agrave">
          -26 271 523 121 callsubr
          -435 vmoveto
          -50 callsubr
        </CharString>
        <CharString name="amacron">
          -26 346 367 callgsubr
          -169 -464 rmoveto
          -50 callsubr
        </CharString>
        <CharString name="ampersand">
          89 175 84 rmoveto
          -22 -7 6 21 hvcurveto
          67 vlineto
          28 9 10 19 13 vhcurveto
          21 13 139 -158 rlineto
          -158 437 rmoveto
          456 callgsubr
          39 38 callsubr
          -22 hvcurveto
          -76 vlineto
          -36 -18 -15 -38 -25 vhcurveto
          -3 -2 rlineto
          -22 25 -14 20 26 vvcurveto
          381 -473 rmoveto
          -82 95 rlineto
          4 12 2 13 14 vvcurveto
          137 -92 -75 vlineto
          -113 133 21 13 rlineto
          55 35 30 31 74 vvcurveto
          85 490 callsubr
          -76 vhcurveto
          -103 209 callsubr
          -88 vlineto
          -46 30 -37 39 -47 vhcurveto
          -26 -18 rlineto
          -53 -32 -17 -23 -52 vvcurveto
          -90 -18 callsubr
          224 hlineto
          13 12 1 2 11 hvcurveto
          34 -38 rlineto
          endchar
        </CharString>
        <CharString name="aogonek">
          272 callsubr
          79 -254 133 callgsubr
          585 -112 -48 hlineto
          -40 callsubr
          37 374 callgsubr
        </CharString>
        <CharString name="approxequal">
          92 336 364 rmoveto
          44 hlineto
          67 25 30 56 hvcurveto
          62 -104 -36 415 callgsubr
          -30 -57 hvcurveto
          -62 104 37 vlineto
          22 5 12 24 vhcurveto
          60 18 -71 85 hhcurveto
          -182 vmoveto
          44 hlineto
          67 25 31 56 hvcurveto
          62 -104 -37 415 callgsubr
          -29 -57 hvcurveto
          -62 104 37 vlineto
          22 5 11 24 vhcurveto
          60 18 -71 85 hhcurveto
          endchar
        </CharString>
        <CharString name="aring">
          -26 158 617 13 callsubr
          13 -441 rmoveto
          -50 callsubr
        </CharString>
        <CharString name="asciicircum">
          138 195 670 rmoveto
          -129 -364 rlineto
          118 hlineto
          85 263 86 -263 rlineto
          118 hlineto
          -129 364 rlineto
          endchar
        </CharString>
        <CharString name="asciitilde">
          161 372 211 rmoveto
          44 hlineto
          67 26 30 56 hvcurveto
          71 -104 -45 vlineto
          -23 -4 -11 -24 vhcurveto
          -60 -24 80 -84 hhcurveto
          -46 hlineto
          -66 -26 -30 -57 hvcurveto
          -71 104 46 vlineto
          22 5 12 25 vhcurveto
          60 22 -80 85 hhcurveto
          endchar
        </CharString>
        <CharString name="asterisk">
          -79 325 486 rmoveto
          -28 85 -28 -9 -26 -8 -20 -10 -16 -10 rlinecurve
          5 18 3 22 26 vvcurveto
          31 -89 -30 vlineto
          -27 4 -23 4 -18 vhcurveto
          -15 10 -20 11 -26 8 -29 9 rcurveline
          -28 -85 29 -9 26 -9 22 -3 18 -1 rlinecurve
          -14 -12 -15 -16 -16 -21 -19 -25 rcurveline
          73 -53 18 24 16 22 10 20 7 18 rlinecurve
          7 -17 10 -20 15 -21 19 -26 rcurveline
          72 53 -18 25 -16 22 -15 16 -15 11 rlinecurve
          18 1 22 4 25 8 rrcurveto
          endchar
        </CharString>
        <CharString name="at">
          324 237 337 rmoveto
          -162 vlineto
          -60 30 -34 67 vhcurveto
          24 hlineto
          39 27 17 37 6 hvcurveto
          -54 166 vlineto
          71 31 36 62 hvcurveto
          310 vlineto
          63 -30 36 -72 vhcurveto
          -428 hlineto
          -72 431 callsubr
          -470 400 callgsubr
          72 vhcurveto
          356 85 -326 -24 callsubr
          443 vlineto
          22 148 callgsubr
          370 hlineto
          22 6 -6 -22 hvcurveto
          -289 vlineto
          -3 callgsubr
          -45 272 -97 -44 hlineto
          29 -9 -24 15 -35 hhcurveto
          -24 hlineto
          -67 -30 -34 -60 hvcurveto
          103 -11 rmoveto
          -84 callgsubr
          28 hlineto
          20 9 -8 -24 hvcurveto
          -128 vlineto
          -24 -9 -8 -20 vhcurveto
          -28 hlineto
          -21 -6 5 21 hvcurveto
          endchar
        </CharString>
        <CharString name="atilde">
          -26 131 553 rmoveto
          219 callsubr
          8 callgsubr
          vlineto
          46 -445 rmoveto
          -50 callsubr
        </CharString>
        <CharString name="b">
          -26 245 392 callgsubr
          -30 hlineto
          -21 -10 9 24 hvcurveto
          249 vlineto
          25 10 9 21 vhcurveto
          30 -60 callsubr
          -19 115 rmoveto
          -36 -24 -14 -28 -10 hvcurveto
          219 -113 -669 112 45 vlineto
          -30 9 25 -15 37 hhcurveto
          30 hlineto
          72 31 36 63 hvcurveto
          294 306 callgsubr
        </CharString>
        <CharString name="backslash">
          -24 16 700 rmoveto
          283 -803 rlineto
          102 hlineto
          -283 803 rlineto
          endchar
        </CharString>
        <CharString name="bar">
          -203 53 769 rmoveto
          -909 107 909 vlineto
          endchar
        </CharString>
        <CharString name="braceleft">
          -125 217 674 rmoveto
          20 8 8 22 vhcurveto
          40 83 -81 hlineto
          -79 -25 -43 -59 hvcurveto
          -228 vlineto
          -70 -23 -31 -55 vhcurveto
          -14 -83 14 hlineto
          55 23 -32 -69 hvcurveto
          -229 vlineto
          -60 25 -43 79 vhcurveto
          81 84 -40 hlineto
          -22 -8 8 20 hvcurveto
          246 vlineto
          69 -27 42 -49 5 vhcurveto
          47 8 29 39 76 vvcurveto
          endchar
        </CharString>
        <CharString name="braceright">
          -125 77 435 rmoveto
          -76 30 -39 47 -8 vhcurveto
          -49 -5 -28 -42 -69 vvcurveto
          -246 vlineto
          -20 -8 -8 -22 vhcurveto
          -39 -84 81 hlineto
          78 25 43 60 hvcurveto
          229 vlineto
          69 23 32 56 vhcurveto
          14 83 -14 hlineto
          -56 -23 31 70 hvcurveto
          228 vlineto
          59 -25 43 -78 vhcurveto
          -81 -83 39 hlineto
          22 8 -8 -20 hvcurveto
          endchar
        </CharString>
        <CharString name="bracketleft">
          -107 266 697 rmoveto
          88 -213 -948 213 88 -97 772 vlineto
          endchar
        </CharString>
        <CharString name="bracketright">
          -107 247 785 rmoveto
          -213 -88 97 -772 -97 -88 213 hlineto
          endchar
        </CharString>
        <CharString name="breve">
          24 279 660 rmoveto
          99 callsubr
          102 hlineto
          76 32 36 63 hvcurveto
          38 vlineto
          endchar
        </CharString>
        <CharString name="brokenbar">
          -203 48 254 rmoveto
          -350 116 350 vlineto
          122 vmoveto
          349 -116 -349 vlineto
          endchar
        </CharString>
        <CharString name="bullet">
          -24 62 321 rmoveto
          -75 61 -61 75 75 61 61 75 75 -61 61 -75 -75 -61 -61 -75 vhcurveto
          endchar
        </CharString>
        <CharString name="c">
          -40 352 326 rmoveto
          66 37 callgsubr
          -98 hlineto
          20 callsubr
          vlineto
          endchar
        </CharString>
        <CharString name="cacute">
          -40 353 660 48 callsubr
          -95 -32 rmoveto
          20 callsubr
          111 66 37 callgsubr
          endchar
        </CharString>
        <CharString name="caron">
          24 163 523 rmoveto
          117 hlineto
          -2 callsubr
          endchar
        </CharString>
        <CharString name="ccaron">
          -40 251 523 rmoveto
          -2 callsubr
          106 -137 rlineto
          11 -32 rmoveto
          20 callsubr
          111 66 37 callgsubr
          endchar
        </CharString>
        <CharString name="ccedilla">
          -40 145 263 callgsubr
          207 375 rmoveto
          66 37 callgsubr
          -98 hlineto
          20 callsubr
          vlineto
          endchar
        </CharString>
        <CharString name="cedilla">
          24 204 263 callgsubr
          endchar
        </CharString>
        <CharString name="cent">
          -40 352 326 rmoveto
          66 vlineto
          61 -30 35 -71 3 vhcurveto
          78 -109 -78 vlineto
          -75 -1 -31 -36 -62 vvcurveto
          -293 vlineto
          -62 31 -36 75 -1 vhcurveto
          -77 109 77 vlineto
          71 3 30 35 61 vvcurveto
          67 -111 -51 vlineto
          -3 callgsubr
          -36 212 callsubr
          36 -60 callsubr
          -50 vlineto
          endchar
        </CharString>
        <CharString name="circumflex">
          24 57 523 251 callgsubr
        </CharString>
        <CharString name="colon">
          -230 34 344 rmoveto
          -197 122 197 vlineto
          endchar
        </CharString>
        <CharString name="comma">
          388 callgsubr
        </CharString>
        <CharString name="commaaccent">
          24 163 11 callsubr
          endchar
        </CharString>
        <CharString name="copyright">
          302 691 340 rmoveto
          183 -59 108 -170 vhcurveto
          -192 hlineto
          -171 -58 -108 -183 hvcurveto
          -54 vlineto
          -184 58 -102 171 vhcurveto
          192 hlineto
          170 59 102 184 hvcurveto
          -406 -209 rmoveto
          -110 -40 64 136 hvcurveto
          72 vlineto
          136 40 70 110 vhcurveto
          162 hlineto
          110 39 -70 -136 hvcurveto
          -72 vlineto
          -136 -39 -64 -110 vhcurveto
          -38 172 rmoveto
          -19 -5 -5 -20 vhcurveto
          -36 hlineto
          -20 -5 5 19 hvcurveto
          141 vlineto
          19 5 5 20 vhcurveto
          36 hlineto
          20 5 -5 -19 hvcurveto
          -28 90 43 vlineto
          52 -27 29 -61 vhcurveto
          -89 hlineto
          -62 -27 -29 -52 hvcurveto
          -171 vlineto
          -52 27 -30 62 vhcurveto
          89 hlineto
          61 27 30 52 hvcurveto
          43 -90 vlineto
          endchar
        </CharString>
        <CharString name="currency">
          96 239 182 rmoveto
          -37 -14 7 44 hvcurveto
          132 vlineto
          44 14 7 37 vhcurveto
          41 hlineto
          37 15 -7 -44 hvcurveto
          -132 vlineto
          -44 -15 -7 -37 vhcurveto
          150 189 rmoveto
          27 -4 24 -8 19 vhcurveto
          45 45 -70 70 -61 -60 rlineto
          1 -8 -9 0 -10 hhcurveto
          -90 hlineto
          -12 -10 -1 -1 -10 hvcurveto
          -62 61 -71 -70 51 -51 rlineto
          -7 -18 -3 -21 -25 vvcurveto
          -144 vlineto
          -21 2 -19 5 -16 vhcurveto
          -48 -48 71 -71 53 53 rlineto
          -3 12 14 -1 15 hhcurveto
          90 hlineto
          13 12 1 2 11 hvcurveto
          52 -52 70 71 -42 42 rlineto
          6 17 3 21 24 vvcurveto
          endchar
        </CharString>
        <CharString name="d">
          -26 177 424 callgsubr
          262 265 callsubr
          -25 hvcurveto
          -249 237 callgsubr
          31 581 rmoveto
          -219 vlineto
          269 callsubr
          vlineto
          endchar
        </CharString>
        <CharString name="dagger">
          -31 382 472 rmoveto
          441 callgsubr
          -498 115 498 130 hlineto
          endchar
        </CharString>
        <CharString name="daggerdbl">
          -7 394 388 rmoveto
          84 441 callgsubr
          -294 -130 -83 130 -159 115 159 130 83 -130 294 vlineto
          endchar
        </CharString>
        <CharString name="dcaron">
          7 177 424 callgsubr
          262 265 callsubr
          -25 hvcurveto
          -249 237 callgsubr
          31 362 rmoveto
          269 callsubr
          -114 vlineto
          156 hmoveto
          -183 33 vlineto
          53 127 rlineto
          56 vlineto
          endchar
        </CharString>
        <CharString name="dcroat">
          -21 182 167 callsubr
          192 523 rmoveto
          -47 58 -114 -58 -74 -66 74 -96 hlineto
          444 callsubr
          -293 404 callgsubr
          545 47 vlineto
          endchar
        </CharString>
        <CharString name="degree">
          -8 359 533 rmoveto
          62 -30 36 -76 vhcurveto
          -97 hlineto
          -77 -29 -36 -62 hvcurveto
          -104 vlineto
          -62 29 -36 77 vhcurveto
          97 hlineto
          76 30 36 62 hvcurveto
          -105 6 rmoveto
          -21 -7 -5 -22 vhcurveto
          -41 hlineto
          -22 -7 5 21 hvcurveto
          92 vlineto
          20 7 6 22 vhcurveto
          41 hlineto
          22 7 -6 -20 hvcurveto
          endchar
        </CharString>
        <CharString name="dieresis">
          24 62 541 218 callgsubr
          endchar
        </CharString>
        <CharString name="divide">
          27 25 270 485 callgsubr
          143 152 rmoveto
          -95 111 95 vlineto
          -111 -297 rmoveto
          -96 111 96 vlineto
          endchar
        </CharString>
        <CharString name="dollar">
          -21 180 362 rmoveto
          -22 -7 6 21 hvcurveto
          127 vlineto
          21 7 6 22 vhcurveto
          38 -60 callsubr
          -72 116 88 358 callsubr
          -76 vhcurveto
          79 -109 -79 -1 vlineto
          -77 431 callsubr
          -155 vlineto
          -63 28 -37 75 vhcurveto
          81 -60 callsubr
          -135 vlineto
          -3 callgsubr
          -38 2 callgsubr
          71 -115 -87 vlineto
          -62 31 -36 76 -1 vhcurveto
          -79 109 79 1 vlineto
          2 callsubr
          165 vlineto
          63 -30 35 -75 vhcurveto
          endchar
        </CharString>
        <CharString name="dotaccent">
          24 161 539 rmoveto
          122 105 -122 hlineto
          endchar
        </CharString>
        <CharString name="dotlessi">
          169 callgsubr
          endchar
        </CharString>
        <CharString name="dvBH_N">
          403 553 332 callsubr
          -306 hmoveto
          371 callgsubr
          -34 -74 callsubr
          111 vlineto
          22 -87 callgsubr
          63 hlineto
          114 82 rmoveto
          128 vlineto
          -66 callgsubr
          -115 -98 35 callgsubr
          -140 -6 callsubr
          149 79 -149 vlineto
          -70 32 -30 83 462 callgsubr
          -297 vlineto
          -69 -30 -22 -48 -6 hvcurveto
          -1 222 rmoveto
          -83 403 83 vlineto
          endchar
        </CharString>
        <CharString name="dvB_N">
          273 423 370 rmoveto
          22 7 5 21 vhcurveto
          53 -208 hlineto
          293 callgsubr
          -238 -28 16 callgsubr
          73 -112 rcurveline
          24 111 rmoveto
          -41 6 -27 -32 callgsubr
          -210 vlineto
          -70 34 -30 68 vhcurveto
          132 hlineto
          30 18 7 16 11 hvcurveto
          -16 19 29 490 callgsubr
          82 316 callsubr
          -78 -28 -29 -62 hvcurveto
          -330 504 callsubr
          733 83 vlineto
          endchar
        </CharString>
        <CharString name="dvCH_N">
          169 185 -230 rmoveto
          -20 callsubr
          54 708 -67 callgsubr
          503 callgsubr
          vlineto
          -35 callgsubr
          180 -63 -100 hlineto
          -62 -33 408 callsubr
          92 -1 rlineto
          33 -66 callsubr
          76 -108 92 248 hlineto
          76 1 36 30 69 vvcurveto
          166 callsubr
        </CharString>
        <CharString name="dvC_N">
          239 400 370 rmoveto
          22 6 5 22 69 callsubr
          -113 6 rmoveto
          -69 callsubr
          -55 417 callsubr
          23 6 4 22 1 vhcurveto
          32 82 -233 162 callgsubr
          109 355 callgsubr
          101 82 -302 35 callgsubr
          -308 504 callsubr
          716 83 vlineto
          endchar
        </CharString>
        <CharString name="dvDDH_DDHA">
          19 355 330 callsubr
          104 83 -479 -83 262 182 callgsubr
          -215 vlineto
          -36 16 -16 425 callsubr
          -3 -16 -16 -33 vvcurveto
          -170 vlineto
          409 callgsubr
          127 260 callgsubr
          37 vlineto
          71 -32 30 -83 vhcurveto
          -83 -83 56 hlineto
          22 7 -5 -23 hvcurveto
          -16 vlineto
          -23 -7 -5 -22 vhcurveto
          -73 -88 callgsubr
          169 -96 callgsubr
          101 260 callgsubr
          40 338 callgsubr
          -83 -83 56 hlineto
          22 7 -5 -23 hvcurveto
          -18 vlineto
          -23 -7 -5 -22 vhcurveto
          -73 -88 callgsubr
          160 -68 callgsubr
          endchar
        </CharString>
        <CharString name="dvDD_GA">
          -17 336 401 -42 callgsubr
          -40 12 -26 30 -14 vhcurveto
          -66 vlineto
          -17 -5 -4 -17 vhcurveto
          -19 -63 52 hlineto
          59 21 24 47 hvcurveto
          68 52 -181 91 194 vlineto
          26 15 11 25 38 136 callsubr
        </CharString>
        <CharString name="dvDD_N">
          -17 72 -224 rmoveto
          -20 callsubr
          149 625 56 callsubr
        </CharString>
        <CharString name="dvDH_N">
          349 470 348 callsubr
          54 -208 hlineto
          168 callsubr
          -113 6 rmoveto
          -57 callgsubr
          77 260 callgsubr
          219 135 82 -337 395 callgsubr
          -1 243 rmoveto
          1 -83 rlineto
          442 83 hlineto
          endchar
        </CharString>
        <CharString name="dvD_N">
          -17 94 -152 rmoveto
          -20 callsubr
          145 549 104 callgsubr
        </CharString>
        <CharString name="dvGH_N">
          269 419 348 callsubr
          54 458 callgsubr
          -8 252 callsubr
          290 359 rmoveto
          83 -729 -83 73 vlineto
          286 callgsubr
          127 311 callsubr
          82 428 callsubr
          96 82 -298 329 callsubr
          -86 64 callsubr
          30 8 2 41 vhcurveto
          endchar
        </CharString>
        <CharString name="dvG_N">
          397 547 370 75 callgsubr
          -260 -227 rmoveto
          -83 callgsubr
          628 470 rmoveto
          -857 -83 -93 callgsubr
          486 vlineto
          endchar
        </CharString>
        <CharString name="dvJH_N">
          389 538 332 callsubr
          -201 212 rmoveto
          147 491 83 -857 -83 252 -69 -87 vlineto
          -78 -28 -29 -62 hvcurveto
          -59 callgsubr
          78 -59 hlineto
          -70 32 169 callsubr
          316 callsubr
          -78 -28 -29 -62 hvcurveto
          -72 -254 vlineto
          61 callgsubr
          endchar
        </CharString>
        <CharString name="dvJ_N">
          421 631 397 rmoveto
          -208 vlineto
          126 callsubr
          293 82 rmoveto
          -631 256 callgsubr
          84 -9 vlineto
          289 callgsubr
          126 vlineto
          -891 234 rmoveto
          -83 891 83 vlineto
          endchar
        </CharString>
        <CharString name="dvKH_N">
          573 691 333 callgsubr
          -114 27 rmoveto
          156 callsubr
          146 82 -348 35 callgsubr
          -597 504 callsubr
          206 vlineto
          -86 callsubr
          706 83 hlineto
          endchar
        </CharString>
        <CharString name="dvK_N">
          413 639 367 rmoveto
          -178 443 callgsubr
          151 -14 callsubr
          298 181 rmoveto
          83 -903 -83 259 -358 vlineto
          -107 callgsubr
          337 -37 callgsubr
          62 -9 hlineto
          -180 vlineto
          -70 33 -30 83 vhcurveto
          77 260 callgsubr
          189 131 82 -489 vlineto
          229 callsubr
          vlineto
          endchar
        </CharString>
        <CharString name="dvM_N">
          416 626 189 74 callsubr
          629 199 rmoveto
          83 -876 -83 646 -116 -487 280 callgsubr
          -163 12 callgsubr
          171 80 -8 vlineto
          -163 179 callsubr
          171 117 83 -117 116 vlineto
          endchar
        </CharString>
        <CharString name="dvMatraI.a33">
          -107 callsubr
          1047 -65 callgsubr
        </CharString>
        <CharString name="dvMatraI.a34">
          -107 callsubr
          1073 118 callgsubr
        </CharString>
        <CharString name="dvMatraI.a35">
          -107 callsubr
          1100 hlineto
          27 -36 callgsubr
        </CharString>
        <CharString name="dvMatraI.a36">
          -107 callsubr
          1126 -65 callgsubr
        </CharString>
        <CharString name="dvMatraI.a37">
          -107 callsubr
          1152 hlineto
          28 -36 callgsubr
        </CharString>
        <CharString name="dvMatraI.a38">
          -107 callsubr
          1179 hlineto
          27 -36 callgsubr
        </CharString>
        <CharString name="dvMatraI.a39">
          -107 callsubr
          1205 -65 callgsubr
        </CharString>
        <CharString name="dvMatraI.a40">
          -107 callsubr
          1231 -65 callgsubr
        </CharString>
        <CharString name="dvMatraI.a41">
          -107 callsubr
          1257 118 callgsubr
        </CharString>
        <CharString name="dvMatraI.a42">
          -107 callsubr
          1284 hlineto
          27 -36 callgsubr
        </CharString>
        <CharString name="dvMatraI.a43">
          -107 callsubr
          1310 -65 callgsubr
        </CharString>
        <CharString name="dvMatraI.a44">
          -107 callsubr
          1336 hlineto
          28 -36 callgsubr
        </CharString>
        <CharString name="dvMatraI.a45">
          -107 callsubr
          1363 hlineto
          27 -36 callgsubr
        </CharString>
        <CharString name="dvMatraI.a46">
          -107 callsubr
          1389 -65 callgsubr
        </CharString>
        <CharString name="dvMatraI.a47">
          -107 callsubr
          1415 -65 callgsubr
        </CharString>
        <CharString name="dvMatraI.a48">
          -107 callsubr
          1441 118 callgsubr
        </CharString>
        <CharString name="dvMatraI.a49">
          -107 callsubr
          1468 hlineto
          27 -36 callgsubr
        </CharString>
        <CharString name="dvMatraI.a50">
          -107 callsubr
          1494 -65 callgsubr
        </CharString>
        <CharString name="dvNG_GA">
          22 344 297 -19 callgsubr
          -40 12 -26 30 -14 vhcurveto
          -66 vlineto
          -17 -5 -4 -17 vhcurveto
          -19 -63 52 hlineto
          59 21 24 47 hvcurveto
          68 52 -181 91 194 vlineto
          26 15 11 25 38 vvcurveto
          -69 callgsubr
          147 147 126 83 hlineto
          endchar
        </CharString>
        <CharString name="dvNG_MA">
          222 446 412 rmoveto
          -95 -105 95 hlineto
          39 -223 rmoveto
          -143 137 hlineto
          62 -28 30 -78 vhcurveto
          -58 hlineto
          -21 -6 5 21 hvcurveto
          36 -96 callgsubr
          148 147 159 hlineto
          215 callgsubr
          -687 -83 233 -69 -70 hlineto
          94 callgsubr
          -62 vlineto
          -62 433 callgsubr
          58 17 callsubr
          -75 210 callgsubr
          -34 hlineto
          -18 225 callgsubr
          42 -114 -56 vlineto
          -61 22 callgsubr
          63 hlineto
          11 10 1 2 10 hvcurveto
          -116 113 86 143 -145 113 692 69 vlineto
          endchar
        </CharString>
        <CharString name="dvNY_CA">
          395 835 631 rmoveto
          -855 -83 673 131 callgsubr
          -226 -82 65 318 callsubr
          -39 -103 65 vlineto
          -29 callgsubr
          59 103 -59 vlineto
          -70 12 callsubr
          74 hlineto
          20 -48 callgsubr
          69 vlineto
          endchar
        </CharString>
        <CharString name="dvN_N">
          388 616 397 rmoveto
          -208 vlineto
          126 callgsubr
          -335 -208 -100 callgsubr
          611 82 rmoveto
          -699 225 callsubr
          109 vlineto
          -858 234 rmoveto
          -83 858 83 vlineto
          endchar
        </CharString>
        <CharString name="dvPH_N">
          418 250 21 callgsubr
          399 -151 rmoveto
          -208 vlineto
          126 callsubr
          262 151 rmoveto
          83 -878 105 callsubr
          63 -9 hlineto
          289 callgsubr
          95 82 -454 vlineto
          158 callsubr
          81 vlineto
          endchar
        </CharString>
        <CharString name="dvP_N">
          229 379 370 rmoveto
          22 6 5 22 69 callsubr
          290 359 rmoveto
          83 -689 -83 64 182 callsubr
          101 355 callgsubr
          96 82 -297 329 callsubr
          -47 482 callsubr
        </CharString>
        <CharString name="dvSHA_MatraVocalicR">
          172 163 527 177 callsubr
          381 -352 rmoveto
          509 68 83 -182 -266 -93 95 callsubr
          142 -169 -6 hlineto
          -76 -28 -30 -62 hvcurveto
          -65 vlineto
          -62 28 -29 78 vhcurveto
          167 82 -132 hlineto
          -21 -6 5 21 hvcurveto
          35 -96 callgsubr
          endchar
        </CharString>
        <CharString name="dvSH_VA.aSimp">
          408 159 634 rmoveto
          -105 callgsubr
          593 -3 rmoveto
          -452 -83 270 -358 hlineto
          19 callsubr
        </CharString>
        <CharString name="dvS_N">
          399 629 189 99 callgsubr
          210 82 rmoveto
          -298 90 callgsubr
          492 83 -858 -104 callgsubr
          279 -92 192 callgsubr
          96 vlineto
          endchar
        </CharString>
        <CharString name="dvTH_N">
          345 479 348 callsubr
          54 -208 hlineto
          168 callsubr
          -114 6 rmoveto
          -21 callsubr
          24 15 430 callsubr
          19 28 -7 40 hhcurveto
          78 260 callgsubr
          219 112 82 -314 144 callgsubr
          243 vmoveto
          -83 420 83 vlineto
          endchar
        </CharString>
        <CharString name="dvTTH_N">
          1 85 -225 rmoveto
          -20 callsubr
          -10 308 66 callsubr
        </CharString>
        <CharString name="dvTTH_TTHA">
          27 301 283 rmoveto
          364 callgsubr
          93 426 callgsubr
          84 hlineto
          22 7 -5 -23 hvcurveto
          -448 vmoveto
          364 callgsubr
          93 vlineto
          24 492 callgsubr
          84 hlineto
          22 7 -5 -24 hvcurveto
          157 527 rmoveto
          83 -478 -83 190 -63 -7 vlineto
          384 callsubr
          -111 472 callgsubr
          7 -43 -7 hlineto
          -82 -33 -30 -71 hvcurveto
          -111 472 callgsubr
          134 hlineto
          82 33 29 71 hvcurveto
          111 vlineto
          71 413 callgsubr
          -9 43 9 hlineto
          82 33 29 71 hvcurveto
          111 vlineto
          299 callsubr
          -9 63 hlineto
          endchar
        </CharString>
        <CharString name="dvTT_GA">
          -18 355 397 79 callgsubr
          -43 13 -29 29 -15 vhcurveto
          -68 vlineto
          -17 -4 -4 -18 vhcurveto
          -19 -63 53 hlineto
          58 22 24 47 hvcurveto
          68 51 -181 91 199 vlineto
          24 15 11 27 40 vvcurveto
          -31 callsubr
        </CharString>
        <CharString name="dvTT_N">
          -18 84 -229 rmoveto
          -20 callsubr
          156 626 86 callsubr
        </CharString>
        <CharString name="dvT_KH_NA">
          927 991 189 345 callsubr
          181 -14 callsubr
          54 hlineto
          371 234 rmoveto
          -1382 55 callgsubr
          251 84 -228 217 callgsubr
          636 -69 -278 hlineto
          199 callgsubr
          -172 vlineto
          -24 -10 -8 -24 vhcurveto
          -30 368 callgsubr
          21 6 5 21 vhcurveto
          29 246 callsubr
          34 -29 68 vhcurveto
          64 hlineto
          24 16 6 12 8 hvcurveto
          -28 16 33 -13 54 hhcurveto
          77 hlineto
          83 32 411 callsubr
        </CharString>
        <CharString name="dvT_N">
          246 450 397 rmoveto
          -208 vlineto
          126 callgsubr
          290 82 rmoveto
          -537 -81 callgsubr
          71 -9 hlineto
          -210 vlineto
          -70 33 -30 83 vhcurveto
          77 260 callgsubr
          219 123 vlineto
          -706 234 rmoveto
          -83 706 83 vlineto
          endchar
        </CharString>
        <CharString name="dvT_R_KA">
          429 869 456 callsubr
          -889 -83 516 -358 vlineto
          -106 callsubr
          -117 -10 vlineto
          -80 139 rlineto
          -35 callsubr
          23 -15 hlineto
          43 callgsubr
        </CharString>
        <CharString name="dvT_S_NA">
          781 1040 477 callsubr
          -36 -96 vlineto
          -28 callsubr
          472 hlineto
          -189 -359 rmoveto
          -23 -8 149 callgsubr
          54 hlineto
          370 234 rmoveto
          -1241 -83 449 288 callsubr
          44 callsubr
          165 279 -92 vlineto
          -70 33 -30 82 vhcurveto
          373 callsubr
        </CharString>
        <CharString name="dvV_N">
          213 363 370 rmoveto
          22 6 5 22 69 callsubr
          -113 1 rmoveto
          -22 -8 -7 6 callgsubr
          33 20 10 18 11 hvcurveto
          -19 18 30 -9 45 hhcurveto
          77 260 callgsubr
          219 96 82 -297 35 callgsubr
          -270 504 callsubr
          673 83 vlineto
          endchar
        </CharString>
        <CharString name="dvY_N">
          318 468 333 callgsubr
          290 442 rmoveto
          -778 201 callgsubr
          96 82 -298 vlineto
          -78 -28 -29 -62 hvcurveto
          -193 vlineto
          -85 callsubr
          494 hlineto
          endchar
        </CharString>
        <CharString name="e">
          -28 148 286 -86 callgsubr
        </CharString>
        <CharString name="eacute">
          -28 359 660 48 callsubr
          -98 -237 -86 callgsubr
        </CharString>
        <CharString name="ecaron">
          -28 258 523 rmoveto
          -2 callsubr
          106 -137 rlineto
          7 -237 -86 callgsubr
        </CharString>
        <CharString name="ecircumflex">
          -29 201 600 40 callsubr
          -1 -237 -86 callgsubr
        </CharString>
        <CharString name="edieresis">
          -29 357 646 91 callgsubr
          -5 -255 -86 callgsubr
        </CharString>
        <CharString name="edotaccent">
          -28 262 644 420 callgsubr
          -114 -253 -86 callgsubr
        </CharString>
        <CharString name="egrave">
          -28 239 523 121 callsubr
          3 -237 -86 callgsubr
        </CharString>
        <CharString name="eight">
          49 callsubr
        </CharString>
        <CharString name="ellipsis">
          192 48 hmoveto
          128 132 -128 hlineto
          211 -132 rmoveto
          127 132 -127 hlineto
          211 -132 rmoveto
          127 132 -127 hlineto
          endchar
        </CharString>
        <CharString name="emacron">
          -28 347 367 callgsubr
          -199 -266 -86 callgsubr
        </CharString>
        <CharString name="emdash">
          178 20 255 rmoveto
          554 83 -554 hlineto
          endchar
        </CharString>
        <CharString name="endash">
          54 31 255 rmoveto
          365 83 -365 hlineto
          endchar
        </CharString>
        <CharString name="eogonek">
          -28 148 286 rmoveto
          94 -29 callsubr
          48 -60 callsubr
          -94 vlineto
          -105 205 rmoveto
          -76 -33 138 callgsubr
          33 -36 76 vhcurveto
          23 -21 -7 hlineto
          85 callgsubr
          -84 hlineto
          443 callsubr
          94 4 4 callgsubr
          50 -110 -37 vlineto
          -3 callgsubr
          -46 49 callgsubr
          101 213 179 358 callsubr
          -76 vhcurveto
          endchar
        </CharString>
        <CharString name="equal">
          33 28 364 rmoveto
          397 91 -397 hlineto
          -281 vmoveto
          397 92 -397 hlineto
          endchar
        </CharString>
        <CharString name="eth">
          -8 255 392 callgsubr
          -50 -24 callsubr
          193 vlineto
          22 148 callgsubr
          76 hlineto
          1 -11 1 -11 -11 vvcurveto
          95 258 rmoveto
          64 vlineto
          -89 -30 -12 14 -12 12 -11 10 rlinecurve
          -157 hlineto
          24 -18 29 -25 27 -31 -60 -20 rcurveline
          -64 vlineto
          100 34 18 -27 16 -29 11 -32 rlinecurve
          -89 209 callsubr
          -221 vlineto
          -63 32 -36 77 vhcurveto
          113 4 callgsubr
          209 vlineto
          98 -31 79 -38 59 vhcurveto
          endchar
        </CharString>
        <CharString name="exclam">
          -186 50 631 rmoveto
          20 -419 rlineto
          94 hlineto
          20 419 rlineto
          -128 -631 rmoveto
          121 135 -121 hlineto
          endchar
        </CharString>
        <CharString name="exclamdown">
          -186 56 356 rmoveto
          121 135 -121 hlineto
          128 -631 rmoveto
          -20 419 rlineto
          -94 hlineto
          -20 -419 rlineto
          endchar
        </CharString>
        <CharString name="f">
          -172 243 580 rmoveto
          89 -78 vlineto
          378 callgsubr
          113 403 73 88 -73 62 -29 callsubr
          endchar
        </CharString>
        <CharString name="fi">
          -5 373 491 rmoveto
          -204 63 hlineto
          21 148 callgsubr
          19 88 -51 hlineto
          378 callgsubr
          112 403 91 -403 113 vlineto
          -113 669 rmoveto
          -88 113 88 vlineto
          endchar
        </CharString>
        <CharString name="five">
          140 callgsubr
        </CharString>
        <CharString name="fl">
          -5 261 669 rmoveto
          -178 -92 63 -29 callsubr
          19 88 -51 hlineto
          378 callgsubr
          112 403 92 -403 112 669 vlineto
          endchar
        </CharString>
        <CharString name="florin">
          -39 338 578 rmoveto
          91 -82 vlineto
          -76 -24 -37 -62 -8 hvcurveto
          -11 -79 rlineto
          -78 -88 67 hlineto
          -58 -429 rlineto
          -21 -3 -4 -6 -22 hhcurveto
          -49 -91 82 hlineto
          77 23 37 62 9 hvcurveto
          60 448 rlineto
          97 88 -85 hlineto
          8 60 rlineto
          21 3 3 6 22 hhcurveto
          endchar
        </CharString>
        <CharString name="four">
          234 callgsubr
        </CharString>
        <CharString name="fraction">
          257 callsubr
        </CharString>
        <CharString name="g">
          -26 177 101 88 callgsubr
        </CharString>
        <CharString name="gbreve">
          -26 177 101 rmoveto
          -24 callgsubr
          248 343 callsubr
          -235 vlineto
          -25 -9 -9 -22 vhcurveto
          33 342 rmoveto
          345 callgsubr
          -280 330 callgsubr
          -78 vlineto
          -3 callgsubr
          -156 -86 189 hlineto
          76 33 36 63 hvcurveto
          528 -112 vlineto
          14 169 rmoveto
          99 callsubr
          102 hlineto
          76 32 36 63 hvcurveto
          38 vlineto
          endchar
        </CharString>
        <CharString name="germandbls">
          115 218 155 rmoveto
          -56 vlineto
          -62 31 -36 75 -1 vhcurveto
          82 hlineto
          77 27 36 63 hvcurveto
          89 358 callsubr
          -76 vhcurveto
          -44 2 callgsubr
          28 vlineto
          21 7 6 22 vhcurveto
          20 hlineto
          71 23 26 56 hvcurveto
          66 vlineto
          60 -32 35 -73 vhcurveto
          -217 hlineto
          -77 -28 -36 -62 hvcurveto
          -514 115 495 vlineto
          21 7 7 22 vhcurveto
          138 hlineto
          22 412 callsubr
          -27 vlineto
          -19 -6 -4 -26 -70 -33 -30 -64 vhcurveto
          -46 vlineto
          -63 28 -36 77 vhcurveto
          46 -60 callsubr
          -69 vlineto
          -3 callgsubr
          -13 hlineto
          -21 1 -5 5 21 vvcurveto
          45 vlineto
          endchar
        </CharString>
        <CharString name="grave">
          24 231 660 357 callgsubr
        </CharString>
        <CharString name="greater">
          33 316 316 rmoveto
          -288 -85 rlineto
          -96 vlineto
          397 128 rlineto
          108 vlineto
          -397 125 rlineto
          -96 vlineto
          endchar
        </CharString>
        <CharString name="greaterequal">
          58 341 388 rmoveto
          -302 -64 rlineto
          -93 vlineto
          400 112 rlineto
          94 vlineto
          -400 104 rlineto
          -91 vlineto
          -328 vmoveto
          400 83 -400 hlineto
          endchar
        </CharString>
        <CharString name="guillemotleft">
          73 147 102 rmoveto
          113 hlineto
          -117 154 117 479 callgsubr
          321 -154 rmoveto
          113 hlineto
          -116 154 116 479 callgsubr
          endchar
        </CharString>
        <CharString name="guillemotright">
          73 260 256 360 callgsubr
          321 154 360 callgsubr
          endchar
        </CharString>
        <CharString name="guilsinglleft">
          -128 147 102 rmoveto
          117 hlineto
          -116 154 116 154 rlineto
          -117 hlineto
          -116 -154 rlineto
          endchar
        </CharString>
        <CharString name="guilsinglright">
          -127 264 256 rmoveto
          -116 154 rlineto
          -117 hlineto
          116 -154 -116 -154 rlineto
          117 hlineto
          endchar
        </CharString>
        <CharString name="h">
          -21 226 491 rmoveto
          -36 -24 -14 -28 -10 hvcurveto
          220 -113 -669 113 370 vlineto
          24 10 9 21 vhcurveto
          30 -60 callsubr
          -376 114 392 306 callgsubr
        </CharString>
        <CharString name="hungarumlaut">
          24 196 523 498 callgsubr
          -226 -137 498 callgsubr
          endchar
        </CharString>
        <CharString name="hyphen">
          446 callgsubr
        </CharString>
        <CharString name="i">
          169 callgsubr
          -3 571 rmoveto
          119 99 -119 hlineto
          endchar
        </CharString>
        <CharString name="iacute">
          169 callgsubr
          6 523 164 callgsubr
          endchar
        </CharString>
        <CharString name="icircumflex">
          169 callgsubr
          -109 523 251 callgsubr
        </CharString>
        <CharString name="idieresis">
          169 callgsubr
          -105 541 218 callgsubr
          endchar
        </CharString>
        <CharString name="igrave">
          169 callgsubr
          18 660 357 callgsubr
        </CharString>
        <CharString name="imacron">
          169 callgsubr
          -95 552 379 callsubr
        </CharString>
        <CharString name="infinity">
          175 483 301 rmoveto
          -25 -3 -9 -28 vhcurveto
          -33 hlineto
          -21 -12 12 17 -12 hvcurveto
          -35 47 35 59 rlineto
          18 12 8 9 17 hhcurveto
          41 hlineto
          28 3 -10 -24 hvcurveto
          -341 -128 rmoveto
          -27 -3 9 25 hvcurveto
          94 vlineto
          24 3 9 27 vhcurveto
          23 hlineto
          26 12 -14 -22 15 hvcurveto
          33 -48 -30 -47 rlineto
          -15 -9 -18 -15 -21 hhcurveto
          243 238 rmoveto
          -63 -11 -15 -56 -35 hvcurveto
          -13 -21 -16 24 rlineto
          47 -34 -19 21 -58 hhcurveto
          -37 hlineto
          -78 -30 -39 -58 hvcurveto
          -120 vlineto
          -59 30 -38 78 vhcurveto
          32 hlineto
          72 21 11 64 38 hvcurveto
          4 7 14 -19 rlineto
          -51 36 22 -12 59 hhcurveto
          36 hlineto
          79 30 38 59 hvcurveto
          120 vlineto
          58 -30 39 -79 vhcurveto
          endchar
        </CharString>
        <CharString name="integral">
          -71 235 596 rmoveto
          21 1 6 6 22 hhcurveto
          49 91 -82 209 callsubr
          -627 vlineto
          -21 -3 -4 -6 -22 hhcurveto
          -49 -91 82 4 callgsubr
          endchar
        </CharString>
        <CharString name="iogonek">
          -221 159 670 rmoveto
          -119 -99 119 hlineto
          -69 -737 133 callgsubr
          585 -113 -491 36 -21 -7 hlineto
          405 callsubr
        </CharString>
        <CharString name="itfLogo">
          1228 147 hmoveto
          263 callsubr
          236 -634 rmoveto
          263 callsubr
          236 -634 rmoveto
          263 callsubr
          -410 vmoveto
          196 185 -196 hlineto
          endchar
        </CharString>
        <CharString name="itfStar">
          252 663 452 rmoveto
          -28 -200 -6 -2 -34 hvcurveto
          -66 246 -8 -27 -53 -188 -8 -31 rlinecurve
          -261 8 25 -15 168 -108 28 -17 rlinecurve
          -96 -247 24 20 152 128 29 20 rlinecurve
          204 -168 -11 28 -71 189 -12 30 rlinecurve
          endchar
        </CharString>
        <CharString name="j">
          -221 43 -23 197 callgsubr
          -22 -86 55 4 callgsubr
          528 -113 vlineto
          -3 80 rmoveto
          119 99 -119 hlineto
          endchar
        </CharString>
        <CharString name="k">
          -29 43 hmoveto
          113 669 -113 hlineto
          347 -178 361 callsubr
        </CharString>
        <CharString name="l">
          -221 156 hmoveto
          423 callsubr
          endchar
        </CharString>
        <CharString name="lacute">
          -221 51 701 164 callgsubr
          19 -838 rmoveto
          423 callsubr
          endchar
        </CharString>
        <CharString name="lcaron">
          -184 156 hmoveto
          423 callsubr
          156 486 rmoveto
          33 hlineto
          53 127 rlineto
          56 -86 vlineto
          endchar
        </CharString>
        <CharString name="less">
          33 425 400 rmoveto
          96 vlineto
          -397 -125 rlineto
          -108 vlineto
          397 -128 rlineto
          96 vlineto
          -288 85 rlineto
          endchar
        </CharString>
        <CharString name="lessequal">
          58 433 450 rmoveto
          91 vlineto
          -400 -104 rlineto
          -94 vlineto
          400 -112 rlineto
          93 vlineto
          -302 64 rlineto
          302 -183 rmoveto
          -400 -83 400 hlineto
          endchar
        </CharString>
        <CharString name="logicalnot">
          71 443 405 rmoveto
          -404 -115 320 -146 84 hlineto
          endchar
        </CharString>
        <CharString name="lozenge">
          137 277 94 rmoveto
          -107 222 107 221 110 -221 rlineto
          -56 315 rmoveto
          -108 hlineto
          -167 -315 167 -316 rlineto
          108 hlineto
          170 316 rlineto
          endchar
        </CharString>
        <CharString name="lslash">
          -211 258 480 rmoveto
          -97 -46 rlineto
          235 -113 -288 vlineto
          -88 -42 rlineto
          -83 vlineto
          88 42 rlineto
          -298 113 351 vlineto
          97 46 rlineto
          endchar
        </CharString>
        <CharString name="m">
          179 428 491 rmoveto
          -39 -30 -17 -33 -9 hvcurveto
          32 -13 -31 18 -50 hhcurveto
          -30 hlineto
          -37 -25 -15 -30 -9 hvcurveto
          45 468 callgsubr
          370 vlineto
          24 10 9 21 vhcurveto
          30 -60 callsubr
          -376 114 370 vlineto
          24 9 9 22 vhcurveto
          30 -60 callsubr
          -376 113 397 callgsubr
          -71 vhcurveto
          endchar
        </CharString>
        <CharString name="macron">
          24 70 552 379 callsubr
        </CharString>
        <CharString name="minus">
          86 21 270 485 callgsubr
          endchar
        </CharString>
        <CharString name="multiply">
          -12 385 424 rmoveto
          -68 68 -113 -113 -113 113 -68 -68 113 -113 -113 -113 68 -68 113 113 113 -113 68 68 -113 113 rlineto
          endchar
        </CharString>
        <CharString name="n">
          -21 226 491 14 callgsubr
        </CharString>
        <CharString name="nacute">
          -21 352 660 48 callsubr
          -13 -32 14 callgsubr
        </CharString>
        <CharString name="ncaron">
          -21 250 523 rmoveto
          -2 callsubr
          106 -137 rlineto
          93 -32 14 callgsubr
        </CharString>
        <CharString name="nine">
          82 callsubr
        </CharString>
        <CharString name="notequal">
          80 314 365 rmoveto
          84 166 rlineto
          -79 hlineto
          -84 -166 rlineto
          -196 -96 148 hlineto
          -85 -169 rlineto
          79 hlineto
          85 169 rlineto
          195 96 hlineto
          endchar
        </CharString>
        <CharString name="ntilde">
          -21 129 553 rmoveto
          219 callsubr
          8 callgsubr
          vlineto
          97 -42 14 callgsubr
        </CharString>
        <CharString name="numbersign">
          129 314 236 rmoveto
          -110 hlineto
          31 158 rlineto
          110 hlineto
          174 hmoveto
          81 -60 vlineto
          30 155 rlineto
          -99 hlineto
          -30 -155 rlineto
          -110 hlineto
          30 155 rlineto
          -99 hlineto
          -30 -155 rlineto
          -84 -81 69 hlineto
          -31 -158 rlineto
          -75 -81 60 480 callgsubr
          110 480 callgsubr
          84 81 -69 hlineto
          31 158 rlineto
          endchar
        </CharString>
        <CharString name="o">
          -18 253 112 -79 callgsubr
        </CharString>
        <CharString name="oacute">
          -18 361 660 48 callsubr
          5 -411 -79 callgsubr
        </CharString>
        <CharString name="ocircumflex">
          -18 199 600 40 callsubr
          106 -411 -79 callgsubr
        </CharString>
        <CharString name="odieresis">
          -18 361 646 91 callgsubr
          96 -429 -79 callgsubr
        </CharString>
        <CharString name="oe">
          237 354 288 rmoveto
          90 vlineto
          21 7 6 22 vhcurveto
          44 -60 callsubr
          -90 vlineto
          -212 -170 rmoveto
          -22 -1 -9 -8 -21 hhcurveto
          -30 hlineto
          92 callsubr
          21 9 -8 -22 1 hvcurveto
          141 118 rmoveto
          377 callgsubr
          -293 216 callgsubr
          212 181 37 callgsubr
          endchar
        </CharString>
        <CharString name="ogonek">
          24 240 297 callsubr
          106 -77 -33 -7 hlineto
          405 callsubr
        </CharString>
        <CharString name="ograve">
          -18 244 523 121 callsubr
          103 -411 -79 callgsubr
        </CharString>
        <CharString name="ohungarumlaut">
          -18 308 523 141 callsubr
          85 -411 -79 callgsubr
        </CharString>
        <CharString name="omacron">
          -18 348 367 callgsubr
          -95 -440 -79 callgsubr
        </CharString>
        <CharString name="one">
          388 callsubr
        </CharString>
        <CharString name="onesuperior">
          -254 128 631 rmoveto
          -117 -54 42 -293 75 hlineto
          endchar
        </CharString>
        <CharString name="ordfeminine">
          -140 118 346 rmoveto
          -15 -5 4 15 hvcurveto
          186 vlineto
          15 5 4 15 vhcurveto
          37 hlineto
          15 7 -7 -16 hvcurveto
          -177 vlineto
          -18 -7 -6 -15 vhcurveto
          23 285 rmoveto
          -31 vlineto
          21 -6 -16 10 -26 hhcurveto
          -32 hlineto
          -51 -22 -25 -45 hvcurveto
          -207 vlineto
          -45 22 -25 51 vhcurveto
          34 hlineto
          24 15 9 18 6 hvcurveto
          -27 73 347 vlineto
          endchar
        </CharString>
        <CharString name="ordmasculine">
          -148 174 357 rmoveto
          -15 -5 -4 -16 vhcurveto
          -34 hlineto
          -16 -4 4 15 hvcurveto
          201 vlineto
          15 4 4 16 vhcurveto
          34 hlineto
          16 5 -4 -15 hvcurveto
          -73 73 rmoveto
          -54 -21 -25 -45 hvcurveto
          -207 vlineto
          -45 21 -25 54 vhcurveto
          70 hlineto
          54 22 25 45 hvcurveto
          207 vlineto
          45 -22 25 -54 vhcurveto
          endchar
        </CharString>
        <CharString name="oslash">
          -12 259 107 rmoveto
          -22 244 callgsubr
          -52 hlineto
          -14 -8 2 7 -4 hvcurveto
          107 206 rlineto
          -110 90 rmoveto
          22 6 6 23 vhcurveto
          52 hlineto
          14 8 -2 -7 4 hvcurveto
          -107 -206 rlineto
          223 314 rmoveto
          -60 hlineto
          -12 -24 rlineto
          3 -12 -13 1 -15 hhcurveto
          -113 hlineto
          -76 -30 175 callsubr
          -29 6 -24 15 -16 vhcurveto
          -26 -50 rlineto
          60 hlineto
          12 24 rlineto
          -3 12 12 -1 15 hhcurveto
          113 hlineto
          77 30 36 63 hvcurveto
          293 vlineto
          29 -6 23 -15 17 vhcurveto
          endchar
        </CharString>
        <CharString name="otilde">
          -18 133 553 rmoveto
          219 callsubr
          8 callgsubr
          vlineto
          120 -421 -79 callgsubr
        </CharString>
        <CharString name="p">
          -26 245 392 callgsubr
          -30 hlineto
          -21 -10 9 24 hvcurveto
          249 vlineto
          24 10 9 21 vhcurveto
          30 -60 callsubr
          -19 115 rmoveto
          -37 -25 -15 -30 -9 hvcurveto
          45 -112 -627 113 178 vlineto
          -28 10 24 -14 36 hhcurveto
          30 hlineto
          72 31 36 63 hvcurveto
          293 306 callgsubr
        </CharString>
        <CharString name="paragraph">
          105 300 631 rmoveto
          -148 209 callsubr
          -212 -18 callsubr
          50 -357 98 hlineto
          69 767 rmoveto
          -767 97 767 vlineto
          endchar
        </CharString>
        <CharString name="parenleft">
          -135 45 214 rmoveto
          -248 81 -139 157 vhcurveto
          13 96 hlineto
          -12 1 rlineto
          -87 4 -37 107 177 vvcurveto
          200 vlineto
          177 37 107 87 4 vhcurveto
          12 1 rlineto
          96 -13 vlineto
          -157 -81 -139 -248 hvcurveto
          endchar
        </CharString>
        <CharString name="parenright">
          -135 239 410 rmoveto
          248 -81 139 -157 vhcurveto
          -13 -96 hlineto
          12 -1 rlineto
          86 -4 38 -107 -177 vvcurveto
          -200 vlineto
          -177 -38 -107 -86 -4 vhcurveto
          -12 -1 rlineto
          -96 13 vlineto
          157 81 139 248 hvcurveto
          endchar
        </CharString>
        <CharString name="percent">
          296 33 callgsubr
          endchar
        </CharString>
        <CharString name="period">
          -230 34 hmoveto
          419 callsubr
          endchar
        </CharString>
        <CharString name="periodcentered">
          -187 38 259 rmoveto
          122 130 -122 hlineto
          endchar
        </CharString>
        <CharString name="perthousand">
          598 33 callgsubr
          431 -364 rmoveto
          55 -26 29 -63 vhcurveto
          -77 hlineto
          -64 -25 -29 -55 hvcurveto
          -183 vlineto
          -54 25 -30 64 vhcurveto
          77 hlineto
          63 26 30 54 hvcurveto
          -93 14 rmoveto
          -20 -5 -5 -20 vhcurveto
          -20 hlineto
          -20 -4 5 20 hvcurveto
          155 vlineto
          20 4 5 20 vhcurveto
          20 hlineto
          20 5 -5 -20 hvcurveto
          endchar
        </CharString>
        <CharString name="pi">
          55 470 491 rmoveto
          -403 -373 hlineto
          -3 callgsubr
          -35 -91 68 4 callgsubr
          309 104 -408 115 408 70 vlineto
          endchar
        </CharString>
        <CharString name="plus">
          19 418 359 rmoveto
          -143 152 -111 -152 -143 -89 143 -152 111 152 143 hlineto
          endchar
        </CharString>
        <CharString name="plusminus">
          33 28 161 485 callgsubr
          254 196 rmoveto
          77 -111 -77 -143 -87 143 -78 111 78 143 87 vlineto
          endchar
        </CharString>
        <CharString name="product">
          46 65 631 rmoveto
          -513 vlineto
          145 callgsubr
          -30 -91 63 4 callgsubr
          448 124 -547 115 631 vlineto
          endchar
        </CharString>
        <CharString name="q">
          272 callsubr
          33 403 rmoveto
          -48 vlineto
          -47 callgsubr
          -178 114 627 vlineto
          endchar
        </CharString>
        <CharString name="question">
          -41 113 hmoveto
          419 callsubr
          16 496 rmoveto
          -79 -30 -39 -59 hvcurveto
          -84 116 71 vlineto
          20 5 8 22 vhcurveto
          40 hlineto
          21 5 -8 -20 hvcurveto
          -142 vlineto
          -20 -5 -8 -21 vhcurveto
          -86 hlineto
          10 -138 rlineto
          96 hlineto
          5 65 rlineto
          8 hlineto
          78 31 39 59 hvcurveto
          158 vlineto
          59 -31 39 -78 vhcurveto
          endchar
        </CharString>
        <CharString name="questiondown">
          -41 252 491 rmoveto
          -122 -135 122 hlineto
          -23 -314 rmoveto
          -71 vlineto
          -20 -5 -8 -22 vhcurveto
          -40 hlineto
          -21 -5 8 20 hvcurveto
          142 vlineto
          20 5 8 21 vhcurveto
          86 hlineto
          -10 138 rlineto
          -96 hlineto
          -5 -65 rlineto
          -8 hlineto
          -78 -31 -39 -59 hvcurveto
          -158 vlineto
          -59 31 -39 78 vhcurveto
          107 hlineto
          79 30 39 59 hvcurveto
          84 vlineto
          endchar
        </CharString>
        <CharString name="quotedbl">
          -87 37 631 rmoveto
          -236 103 236 vlineto
          53 hmoveto
          -236 103 236 vlineto
          endchar
        </CharString>
        <CharString name="quotedblbase">
          -62 202 -142 303 callsubr
        </CharString>
        <CharString name="quotedblleft">
          -62 156 631 rmoveto
          -35 hlineto
          -87 -205 rlineto
          -72 122 vlineto
          167 277 rmoveto
          -35 hlineto
          -86 -205 rlineto
          -72 121 vlineto
          endchar
        </CharString>
        <CharString name="quotedblright">
          -62 202 354 303 callsubr
        </CharString>
        <CharString name="quoteleft">
          -229 157 631 rmoveto
          -36 hlineto
          -87 -205 rlineto
          -72 123 vlineto
          endchar
        </CharString>
        <CharString name="quoteright">
          -229 34 354 rmoveto
          36 hlineto
          87 205 rlineto
          72 -123 vlineto
          endchar
        </CharString>
        <CharString name="quotesinglbase">
          388 callgsubr
        </CharString>
        <CharString name="quotesingle">
          -235 37 631 rmoveto
          -236 111 236 vlineto
          endchar
        </CharString>
        <CharString name="r">
          -154 243 493 309 callgsubr
        </CharString>
        <CharString name="racute">
          -154 313 660 48 callsubr
          -45 302 callsubr
        </CharString>
        <CharString name="rcaron">
          -154 210 523 rmoveto
          -2 callsubr
          106 -137 rlineto
          62 302 callsubr
        </CharString>
        <CharString name="registered">
          13 400 541 rmoveto
          103 -33 61 -97 vhcurveto
          -108 hlineto
          -97 -32 -61 -103 hvcurveto
          -30 vlineto
          -103 32 -58 97 vhcurveto
          108 hlineto
          97 33 58 103 hvcurveto
          -229 -116 rmoveto
          -61 -23 34 76 hvcurveto
          41 vlineto
          76 23 38 61 vhcurveto
          91 hlineto
          62 22 -38 -76 hvcurveto
          -41 vlineto
          -76 -22 -34 -62 vhcurveto
          -103 235 rmoveto
          -203 43 77 8 vlineto
          32 -77 rlineto
          45 hlineto
          -35 79 rlineto
          17 4 7 12 18 vvcurveto
          55 vlineto
          23 -11 12 -27 vhcurveto
          -4 -85 rmoveto
          -5 -2 -2 -5 vhcurveto
          -25 60 25 hlineto
          5 2 -2 -5 hvcurveto
          endchar
        </CharString>
        <CharString name="ring">
          24 339 600 rmoveto
          49 -23 27 -58 vhcurveto
          -72 hlineto
          -58 -23 -27 -49 hvcurveto
          -17 vlineto
          -49 23 -26 58 vhcurveto
          72 hlineto
          58 23 26 49 hvcurveto
          -75 4 rmoveto
          -18 -4 -5 -21 vhcurveto
          -34 hlineto
          -21 -4 5 18 hvcurveto
          9 vlineto
          18 4 6 21 vhcurveto
          34 hlineto
          21 4 -6 -18 hvcurveto
          endchar
        </CharString>
        <CharString name="s">
          -58 221 108 -68 callsubr
        </CharString>
        <CharString name="sacute">
          -58 141 523 164 callgsubr
          -6 -552 -68 callsubr
        </CharString>
        <CharString name="scaron">
          -58 121 523 rmoveto
          117 hlineto
          -2 callsubr
          206 -552 -68 callsubr
        </CharString>
        <CharString name="section">
          364 459 380 rmoveto
          22 6 -6 -21 hvcurveto
          -88 398 callgsubr
          -64 49 callgsubr
          88 -29 callsubr
          204 148 rmoveto
          42 vlineto
          62 238 callgsubr
          -101 hlineto
          -76 -33 -36 -62 hvcurveto
          -92 vlineto
          -25 5 -20 11 -16 vhcurveto
          -28 -17 -10 -32 -44 vvcurveto
          -71 -18 callsubr
          64 hlineto
          23 6 -6 -21 hvcurveto
          -70 vlineto
          -21 -6 -6 -23 vhcurveto
          -35 -24 callsubr
          33 -113 -42 -18 callsubr
          100 4 callgsubr
          91 vlineto
          22 -4 19 -9 16 vhcurveto
          27 17 9 32 42 vvcurveto
          77 37 callgsubr
          -65 -24 callsubr
          70 -29 callsubr
          35 159 callgsubr
          -32 vlineto
          endchar
        </CharString>
        <CharString name="semicolon">
          -230 34 356 rmoveto
          419 callsubr
          -633 vmoveto
          38 hlineto
          84 336 callgsubr
        </CharString>
        <CharString name="seven">
          310 callgsubr
        </CharString>
        <CharString name="six">
          85 callsubr
        </CharString>
        <CharString name="slash">
          257 callsubr
        </CharString>
        <CharString name="space">
          -259 endchar
        </CharString>
        <CharString name="sterling">
          1 164 88 rmoveto
          23 15 4 28 35 vvcurveto
          94 136 84 -136 172 -29 callsubr
          34 159 callgsubr
          -76 115 92 37 callgsubr
          -104 209 callsubr
          -188 -47 -84 47 -85 vlineto
          -60 -8 -28 -39 -3 vhcurveto
          -84 373 88 vlineto
          endchar
        </CharString>
        <CharString name="t">
          -176 234 403 284 callsubr
        </CharString>
        <CharString name="tcaron">
          -176 167 579 rmoveto
          -113 -88 -49 -88 49 -304 hlineto
          -63 32 -36 77 vhcurveto
          70 91 -37 2 callgsubr
          285 67 88 -67 vlineto
          43 196 rmoveto
          -163 32 vlineto
          62 108 rlineto
          55 vlineto
          endchar
        </CharString>
        <CharString name="thorn">
          -21 243 115 197 callgsubr
          -29 hlineto
          -22 -9 9 24 hvcurveto
          249 vlineto
          24 9 9 22 vhcurveto
          29 159 callgsubr
          -20 115 rmoveto
          -38 -25 -16 -32 -8 hvcurveto
          226 -112 -805 114 178 vlineto
          -28 10 24 -14 35 hhcurveto
          30 hlineto
          72 31 36 63 hvcurveto
          293 306 callgsubr
        </CharString>
        <CharString name="three">
          66 callgsubr
        </CharString>
        <CharString name="threesuperior">
          -186 88 562 rmoveto
          11 4 4 12 vhcurveto
          18 hlineto
          12 3 -4 -11 hvcurveto
          -63 vlineto
          -11 -3 -4 -12 vhcurveto
          -33 -52 33 hlineto
          12 3 -3 -12 hvcurveto
          -64 vlineto
          -12 -3 -3 -12 vhcurveto
          -18 hlineto
          -12 -4 3 12 hvcurveto
          41 -73 -56 vlineto
          -34 18 -20 42 vhcurveto
          75 hlineto
          42 18 20 34 hvcurveto
          81 vlineto
          21 -6 13 -17 6 vhcurveto
          17 5 6 15 22 vvcurveto
          76 vlineto
          34 -18 20 -42 vhcurveto
          -75 hlineto
          -42 -18 -20 -34 hvcurveto
          -56 73 vlineto
          endchar
        </CharString>
        <CharString name="tilde">
          24 284 533 rmoveto
          8 callgsubr
          20 vlineto
          219 callsubr
          endchar
        </CharString>
        <CharString name="trademark">
          237 7 556 rmoveto
          83 -252 91 252 83 75 -257 hlineto
          517 hmoveto
          -62 -185 -63 185 rlineto
          -102 -327 82 195 hlineto
          47 -143 rlineto
          73 hlineto
          46 143 rlineto
          -195 82 327 vlineto
          endchar
        </CharString>
        <CharString name="two">
          128 callgsubr
        </CharString>
        <CharString name="twosuperior">
          -193 87 562 rmoveto
          11 3 4 12 vhcurveto
          16 hlineto
          12 3 -4 -11 hvcurveto
          -23 vlineto
          -29 -2 -16 -16 -20 vhcurveto
          -101 -137 rlineto
          -53 194 57 -106 vlineto
          76 111 rlineto
          20 25 9 27 37 vvcurveto
          36 vlineto
          34 -18 20 -42 vhcurveto
          -74 hlineto
          -42 -17 -20 -34 hvcurveto
          -65 73 vlineto
          endchar
        </CharString>
        <CharString name="u">
          -21 243 491 -54 callgsubr
        </CharString>
        <CharString name="uacute">
          -21 355 660 48 callsubr
          1 -32 -54 callgsubr
        </CharString>
        <CharString name="ucircumflex">
          -23 196 600 40 callsubr
          99 -32 -54 callgsubr
        </CharString>
        <CharString name="udieresis">
          -16 355 646 91 callgsubr
          92 -50 -54 callgsubr
        </CharString>
        <CharString name="ugrave">
          -21 249 523 121 callsubr
          88 -32 -54 callgsubr
        </CharString>
        <CharString name="uhungarumlaut">
          -21 300 523 141 callsubr
          83 -32 -54 callgsubr
        </CharString>
        <CharString name="umacron">
          -21 349 367 callgsubr
          -106 -61 -54 callgsubr
        </CharString>
        <CharString name="underscore">
          54 -126 vmoveto
          474 84 -474 hlineto
          endchar
        </CharString>
        <CharString name="uni00A0">
          -259 endchar
        </CharString>
        <CharString name="uni00AD">
          446 callgsubr
        </CharString>
        <CharString name="uni00B5">
          -15 243 491 rmoveto
          -370 vlineto
          -24 -10 -9 -21 vhcurveto
          -30 2 callgsubr
          376 -113 -627 113 136 20 vlineto
          38 25 16 33 8 hvcurveto
          -49 112 474 callsubr
        </CharString>
        <CharString name="uni0122">
          -4 158 11 callsubr
          220 486 36 callgsubr
        </CharString>
        <CharString name="uni0123">
          -26 265 724 rmoveto
          -38 hlineto
          -80 -141 rlineto
          -60 118 vlineto
          -88 -422 88 callgsubr
        </CharString>
        <CharString name="uni0136">
          6 163 631 rmoveto
          -115 -631 115 hlineto
          -8 11 callsubr
          263 680 rmoveto
          356 callsubr
        </CharString>
        <CharString name="uni0137">
          -29 156 669 rmoveto
          -113 -669 113 hlineto
          -11 11 callsubr
          245 540 361 callsubr
        </CharString>
        <CharString name="uni013B">
          -86 129 11 callsubr
          34 137 rmoveto
          304 callsubr
        </CharString>
        <CharString name="uni013C">
          -221 40 442 callsubr
          116 49 rmoveto
          423 callsubr
          endchar
        </CharString>
        <CharString name="uni0145">
          26 155 11 callsubr
          137 680 108 callsubr
        </CharString>
        <CharString name="uni0146">
          -21 140 11 callsubr
          86 540 14 callgsubr
        </CharString>
        <CharString name="uni0156">
          10 155 11 callsubr
          8 592 rmoveto
          83 -60 callsubr
          -158 vlineto
          -3 callgsubr
          -83 hlineto
          153 -82 rmoveto
          51 10 22 34 52 vvcurveto
          187 37 callgsubr
          -232 -631 115 246 38 hlineto
          96 -246 rlineto
          124 hlineto
          endchar
        </CharString>
        <CharString name="uni0157">
          -154 42 11 callsubr
          201 542 309 callgsubr
        </CharString>
        <CharString name="uni015E">
          -21 140 11 callsubr
          108 164 -70 callgsubr
        </CharString>
        <CharString name="uni015F">
          -58 121 11 callsubr
          100 157 -68 callsubr
        </CharString>
        <CharString name="uni0162">
          -74 113 11 callsubr
          -108 680 rmoveto
          264 callsubr
          88 vlineto
          endchar
        </CharString>
        <CharString name="uni0163">
          -74 114 11 callsubr
          -109 680 rmoveto
          264 callsubr
          88 vlineto
          endchar
        </CharString>
        <CharString name="uni0218">
          -21 140 11 callsubr
          108 164 -70 callgsubr
        </CharString>
        <CharString name="uni0219">
          -58 126 442 callsubr
          95 157 -68 callsubr
        </CharString>
        <CharString name="uni021A">
          -74 114 11 callsubr
          -109 680 rmoveto
          264 callsubr
          88 vlineto
          endchar
        </CharString>
        <CharString name="uni021B">
          -176 80 11 callsubr
          154 452 284 callsubr
        </CharString>
        <CharString name="uni02C9">
          24 70 552 379 callsubr
        </CharString>
        <CharString name="uni0901">
          -420 -150 791 rmoveto
          92 95 -92 hlineto
          -136 -119 rmoveto
          -59 32 -29 79 vhcurveto
          143 hlineto
          79 455 callgsubr
          -98 405 callgsubr
          vlineto
          endchar
        </CharString>
        <CharString name="uni0902">
          -420 -152 727 rmoveto
          94 105 -94 hlineto
          endchar
        </CharString>
        <CharString name="uni0902.aMatraI">
          -420 24 657 -49 callgsubr
          endchar
        </CharString>
        <CharString name="uni0903">
          -219 -108 387 -49 callgsubr
          -432 vmoveto
          95 105 -95 hlineto
          endchar
        </CharString>
        <CharString name="uni0905">
          181 621 631 rmoveto
          -181 -275 -130 hlineto
          -50 callgsubr
          68 vlineto
          endchar
        </CharString>
        <CharString name="uni0906">
          392 831 631 rmoveto
          -391 -61 callgsubr
          endchar
        </CharString>
        <CharString name="uni0907">
          -26 341 331 callsubr
          73 83 -434 38 callgsubr
          endchar
        </CharString>
        <CharString name="uni0908">
          -26 341 331 callsubr
          73 83 -73 55 -92 callgsubr
          42 78 -77 -95 callgsubr
          -68 -248 38 callgsubr
          endchar
        </CharString>
        <CharString name="uni09080902">
          -26 341 375 callsubr
          -248 38 callgsubr
          167 147 73 83 -73 hlineto
          33 113 500 callgsubr
        </CharString>
        <CharString name="uni0909">
          -31 405 631 rmoveto
          -425 160 callsubr
          210 vlineto
          32 -15 15 -26 3 vhcurveto
          4 vlineto
          414 callsubr
          76 hlineto
          endchar
        </CharString>
        <CharString name="uni090A">
          133 573 631 rmoveto
          -593 160 callsubr
          178 51 vlineto
          21 6 -5 -23 hvcurveto
          -132 -41 callsubr
          -17 -83 52 hlineto
          77 29 46 callgsubr
          160 vlineto
          71 -35 29 -67 vhcurveto
          -131 4 hlineto
          414 callsubr
          244 hlineto
          endchar
        </CharString>
        <CharString name="uni090B">
          376 582 375 rmoveto
          20 5 7 21 vhcurveto
          11 hlineto
          22 5 -7 -20 hvcurveto
          -77 vlineto
          -20 -8 -7 -15 vhcurveto
          -17 hlineto
          -16 -8 8 19 hvcurveto
          -178 250 rmoveto
          412 83 -836 -83 311 -277 -10 hlineto
          -80 139 rlineto
          -35 callsubr
          23 -193 113 193 215 hlineto
          19 7 -4 -20 hvcurveto
          -64 vlineto
          -20 -5 -7 -21 vhcurveto
          -11 hlineto
          -18 -6 7 20 hvcurveto
          35 -112 -49 vlineto
          -57 25 -34 75 vhcurveto
          80 hlineto
          80 26 32 59 hvcurveto
          89 vlineto
          36 -13 15 -25 6 vhcurveto
          5 vlineto
          26 7 13 16 48 vvcurveto
          67 vlineto
          68 -31 31 -84 vhcurveto
          -60 hlineto
          -84 -31 481 callsubr
          -79 hlineto
          endchar
        </CharString>
        <CharString name="uni090C">
          179 554 39 rmoveto
          509 148 callsubr
          -172 113 172 422 callsubr
          -279 -6 hlineto
          -77 -27 -30 -62 hvcurveto
          -65 vlineto
          -62 28 -29 78 vhcurveto
          167 82 -132 hlineto
          -22 -6 5 21 hvcurveto
          35 196 callsubr
          endchar
        </CharString>
        <CharString name="uni090D">
          16 170 670 rmoveto
          80 455 callgsubr
          -98 217 callsubr
          -66 vlineto
          -59 31 -29 80 vhcurveto
          428 -39 rmoveto
          -476 -83 68 -457 hlineto
          10 callgsubr
        </CharString>
        <CharString name="uni090E">
          16 456 631 rmoveto
          -62 284 callgsubr
          -300 -83 68 -457 vlineto
          10 callgsubr
        </CharString>
        <CharString name="uni090F">
          16 456 631 rmoveto
          -476 -83 68 -457 hlineto
          10 callgsubr
        </CharString>
        <CharString name="uni0910">
          16 456 631 rmoveto
          -69 206 callgsubr
          -292 -83 68 -457 hlineto
          10 callgsubr
        </CharString>
        <CharString name="uni0911">
          392 831 631 rmoveto
          -391 -61 callgsubr
          -40 285 rmoveto
          217 callsubr
          -66 vlineto
          -59 31 -29 80 vhcurveto
          142 hlineto
          80 455 callgsubr
          vlineto
          endchar
        </CharString>
        <CharString name="uni0912">
          391 831 631 rmoveto
          -68 284 callgsubr
          -209 -275 -130 vlineto
          -58 callgsubr
          endchar
        </CharString>
        <CharString name="uni0913">
          391 831 631 rmoveto
          -69 206 callgsubr
          -207 -61 callgsubr
          endchar
        </CharString>
        <CharString name="uni0914">
          392 831 631 rmoveto
          -70 hlineto
          -31 195 rlineto
          77 callsubr
          130 -117 47 -42 28 -21 23 -15 rlinecurve
          -201 -61 callgsubr
          endchar
        </CharString>
        <CharString name="uni0915">
          172 612 456 callsubr
          -632 -83 259 -358 vlineto
          -23 -8 -6 -21 vhcurveto
          -35 hlineto
          -21 -7 5 23 hvcurveto
          186 vlineto
          21 7 5 21 vhcurveto
          24 78 -59 hlineto
          -78 -28 -29 -62 hvcurveto
          -210 vlineto
          43 callgsubr
        </CharString>
        <CharString name="uni0915093C">
          172 67 -89 -49 callgsubr
          545 532 rmoveto
          83 -632 -83 259 -358 vlineto
          -23 -8 -6 -21 vhcurveto
          -35 hlineto
          -21 -7 5 23 hvcurveto
          186 vlineto
          21 7 5 21 vhcurveto
          24 78 -59 hlineto
          -78 -28 -29 -62 hvcurveto
          -210 vlineto
          43 callgsubr
        </CharString>
        <CharString name="uni0915093C094D">
          65 89 -106 -49 callgsubr
          305 450 221 callgsubr
          152 83 -525 -83 259 -358 vlineto
          -107 callgsubr
          337 -37 callgsubr
          133 82 hlineto
          endchar
        </CharString>
        <CharString name="uni0915093C094D0915093C">
          574 84 -107 -49 callgsubr
          403 -103 -49 callgsubr
          154 325 callsubr
          -207 389 callgsubr
          288 vlineto
          373 hmoveto
          83 -1034 -83 259 -358 vlineto
          -107 callgsubr
          24 callsubr
          60 hlineto
          -4 -12 -2 -12 -12 vvcurveto
          -183 40 callgsubr
        </CharString>
        <CharString name="uni0915093C094D0924">
          415 89 -105 -49 callgsubr
          577 449 rmoveto
          -272 hlineto
          229 callsubr
          313 vlineto
          357 callsubr
          -867 -83 259 -358 hlineto
          -107 callgsubr
          337 -37 callgsubr
          62 -9 hlineto
          -267 93 callgsubr
          229 -14 callsubr
          81 -367 336 callsubr
        </CharString>
        <CharString name="uni0915093C094D092B">
          586 89 -105 -49 callgsubr
          565 21 callgsubr
          -260 -99 221 callgsubr
          95 -99 vlineto
          578 99 rmoveto
          83 -1046 -83 259 -358 vlineto
          -107 callgsubr
          337 -37 callgsubr
          66 -189 hlineto
          -70 12 callsubr
          -36 callsubr
          -91 -99 callgsubr
        </CharString>
        <CharString name="uni0915093C094D092B093C">
          586 94 -105 -49 callgsubr
          420 -105 -49 callgsubr
          140 21 callgsubr
          -260 -99 221 callgsubr
          95 -99 vlineto
          578 99 rmoveto
          83 -1046 -83 259 -358 vlineto
          -107 callgsubr
          337 -37 callgsubr
          66 -189 hlineto
          -70 12 callsubr
          -36 callsubr
          -91 -99 callgsubr
        </CharString>
        <CharString name="uni0915093C094D092C">
          450 89 -105 -49 callgsubr
          504 401 rmoveto
          74 78 -273 389 callgsubr
          355 -223 vlineto
          -89 6 -32 174 callgsubr
          -29 45 vhcurveto
          -71 -139 rmoveto
          -21 -6 101 callsubr
          20 -37 25 -43 72 -112 rcurveline
          206 470 rmoveto
          -910 -83 259 -358 hlineto
          -107 callgsubr
          24 callsubr
          60 -9 hlineto
          -210 334 callsubr
        </CharString>
        <CharString name="uni0915093C094D092E">
          602 89 -105 -49 callgsubr
          771 252 callgsubr
          449 callgsubr
          -43 hlineto
          -21 -7 5 22 hvcurveto
          118 -96 callgsubr
          72 hlineto
          -296 199 rmoveto
          296 -116 -255 214 callgsubr
          689 211 rmoveto
          -1062 -83 259 -358 hlineto
          -107 callgsubr
          320 394 callsubr
          62 -8 hlineto
          -146 vlineto
          -71 33 -29 83 vhcurveto
          87 hlineto
          83 32 29 71 hvcurveto
          154 482 callgsubr
        </CharString>
        <CharString name="uni0915093C094D0930">
          172 187 -154 -49 callgsubr
          425 597 rmoveto
          83 -632 5 callsubr
          367 vlineto
          23 314 callgsubr
          -161 -41 callsubr
          -24 -78 59 337 callsubr
          184 196 callgsubr
          -62 389 callgsubr
          vlineto
          endchar
        </CharString>
        <CharString name="uni0915093C094D0930094D">
          62 191 -151 -49 callgsubr
          337 594 rmoveto
          83 -548 5 callsubr
          337 -37 callgsubr
          146 82 -134 hlineto
          229 callsubr
          vlineto
          endchar
        </CharString>
        <CharString name="uni0915094D">
          65 394 449 221 callgsubr
          152 83 -525 -83 259 -358 vlineto
          -107 callgsubr
          337 -37 callgsubr
          133 82 hlineto
          endchar
        </CharString>
        <CharString name="uni0915094D0915">
          574 641 325 callsubr
          -207 389 callgsubr
          288 vlineto
          373 hmoveto
          83 -1034 -83 259 -358 vlineto
          -107 callgsubr
          24 callsubr
          60 hlineto
          -4 -12 -2 -12 -12 vvcurveto
          -183 40 callgsubr
        </CharString>
        <CharString name="uni0915094D0916">
          717 618 354 rmoveto
          -26 -7 -6 -25 vhcurveto
          -28 127 -164 hlineto
          229 callsubr
          233 vlineto
          254 callsubr
          539 115 rmoveto
          -1177 -83 259 -358 hlineto
          -107 callgsubr
          337 -37 callgsubr
          62 -272 -34 callgsubr
          252 -332 hlineto
          -59 callsubr
          -116 111 324 callsubr
        </CharString>
        <CharString name="uni0915094D091A">
          398 657 190 rmoveto
          -23 -8 -6 -22 vhcurveto
          -46 -87 callsubr
          150 vlineto
          266 callsubr
          -220 hlineto
          229 callsubr
          304 vlineto
          357 callsubr
          -858 -83 259 -358 hlineto
          -107 callgsubr
          337 -37 callgsubr
          71 318 callsubr
          -150 vlineto
          -70 34 -30 68 vhcurveto
          73 186 callsubr
        </CharString>
        <CharString name="uni0915094D091C">
          576 835 479 rmoveto
          -193 -290 hlineto
          -23 -8 495 callgsubr
          290 -164 vlineto
          197 callsubr
          80 482 vlineto
          357 callsubr
          -1036 -83 259 -358 hlineto
          -107 callgsubr
          24 callsubr
          62 -219 hlineto
          352 callsubr
          351 callsubr
          219 80 -397 374 callsubr
        </CharString>
        <CharString name="uni0915094D091F">
          383 353 548 rmoveto
          285 -69 -244 93 callsubr
          398 -71 rmoveto
          151 72 83 -843 -83 259 -358 vlineto
          -107 callgsubr
          24 callsubr
          62 -9 hlineto
          -288 281 callsubr
          80 78 callgsubr
        </CharString>
        <CharString name="uni0915094D0923">
          585 646 189 rmoveto
          294 callgsubr
          359 84 vlineto
          -252 -99 221 callgsubr
          96 -99 vlineto
          576 182 rmoveto
          -1045 -83 259 -358 hlineto
          -107 callgsubr
          337 -37 callgsubr
          67 -189 323 callsubr
        </CharString>
        <CharString name="uni0915094D0924">
          202 642 456 callsubr
          -662 -83 290 -81 vlineto
          8 -8 -13 4 -20 hhcurveto
          -223 -82 74 hlineto
          -10 -8 -5 -13 -20 vvcurveto
          -187 vlineto
          -61 28 -30 77 vhcurveto
          59 78 173 callsubr
          186 -66 callsubr
          36 hlineto
          21 8 -7 -23 hvcurveto
          -367 113 24 callsubr
          36 274 callgsubr
          77 28 486 callgsubr
          -34 29 -67 vhcurveto
          -63 391 callsubr
          vlineto
          endchar
        </CharString>
        <CharString name="uni0915094D0924094D092F">
          736 994 -45 callgsubr
          139 139 callgsubr
          90 194 callgsubr
          -600 -137 rmoveto
          158 callsubr
          149 411 vlineto
          198 callsubr
          -78 17 callgsubr
          399 220 rmoveto
          -1196 -83 259 -358 hlineto
          -107 callgsubr
          299 vlineto
          22 184 callgsubr
          74 -8 hlineto
          -229 vlineto
          -61 28 -30 78 165 callgsubr
          191 -96 callgsubr
          80 -150 hlineto
          371 callsubr
          285 callgsubr
        </CharString>
        <CharString name="uni0915094D0924094D0930">
          409 667 271 rmoveto
          -10 hlineto
          -80 139 rlineto
          49 -28 -23 18 -61 hhcurveto
          -71 214 callgsubr
          83 314 vlineto
          215 callgsubr
          -869 -83 259 -358 hlineto
          -107 callgsubr
          365 394 callsubr
          41 hlineto
          28 12 -8 -30 17 hvcurveto
          65 -118 -154 -238 rlineto
          128 hlineto
          125 193 rlineto
          23 -193 3 callgsubr
          hlineto
          endchar
        </CharString>
        <CharString name="uni0915094D0924094D0935">
          597 855 245 callsubr
          156 196 callsubr
          24 78 -421 hlineto
          229 callsubr
          502 vlineto
          215 callgsubr
          -1057 -83 259 -358 hlineto
          -107 callgsubr
          337 -37 callgsubr
          67 hlineto
          -3 -6 -2 -8 -8 vvcurveto
          -254 93 callgsubr
          229 -14 callsubr
          70 hlineto
          -4 -6 -1 -8 -8 vvcurveto
          -167 343 callgsubr
        </CharString>
        <CharString name="uni0915094D0925">
          513 953 631 rmoveto
          437 callgsubr
          -148 -88 callgsubr
          103 24 460 callsubr
          61 hvcurveto
          158 439 callsubr
          -69 vhcurveto
          -41 hlineto
          -69 -31 -73 callgsubr
          -59 69 41 -96 callgsubr
          6 -7 callsubr
          -126 vlineto
          -22 -6 -5 -21 vhcurveto
          -157 93 callsubr
          185 55 83 -428 -83 259 -358 vlineto
          -107 callgsubr
          262 -37 callgsubr
          67 -114 hlineto
          36 callsubr
          168 147 callsubr
        </CharString>
        <CharString name="uni0915094D0926">
          385 353 548 rmoveto
          290 -91 -249 214 callgsubr
          404 -71 rmoveto
          174 72 83 -849 -83 259 -358 vlineto
          -107 callgsubr
          344 -37 callgsubr
          62 -9 hlineto
          -187 vlineto
          -70 33 478 callsubr
          -90 114 271 -114 -81 vlineto
          -23 -8 -6 -21 vhcurveto
          -33 -87 callsubr
          157 -68 callgsubr
          endchar
        </CharString>
        <CharString name="uni0915094D0928">
          570 828 449 rmoveto
          -434 hlineto
          229 callsubr
          475 vlineto
          -189 -359 rmoveto
          168 callsubr
          151 -14 callsubr
          54 hlineto
          371 264 rmoveto
          -1030 -83 259 -358 hlineto
          -107 callgsubr
          337 -37 callgsubr
          62 -9 hlineto
          -180 vlineto
          -70 33 -30 83 vhcurveto
          77 260 callgsubr
          189 76 -367 -13 callsubr
        </CharString>
</ttFont>
